<mxfile host="app.diagrams.net" agent="Mozilla/5.0 (Macintosh; Intel Mac OS X 10_15_7) AppleWebKit/537.36 (KHTML, like Gecko) Chrome/131.0.0.0 Safari/537.36" version="26.0.3">
  <diagram name="Page-1" id="uJYhmcIHub-mEEwEItaT">
    <mxGraphModel dx="2847" dy="1653" grid="1" gridSize="10" guides="1" tooltips="1" connect="1" arrows="1" fold="1" page="1" pageScale="1" pageWidth="850" pageHeight="1100" math="0" shadow="0">
      <root>
        <mxCell id="0" />
        <mxCell id="1" parent="0" />
        <UserObject label="" mermaidData="{&#xa;  &quot;data&quot;: &quot;%%{init: {&#39;theme&#39;:&#39;forest&#39;, &#39;themeCSS&#39;: &#39;.messageLine0:nth-of-type(2) { stroke: black; };g:nth-of-type(5) .note { stroke:blue;fill: crimson; font-size: 16px;};#arrowhead path {stroke: blue; fill:red;}; text { font-size: 16px; }&#39;}}%%\nsequenceDiagram\n    autonumber\n    participant A as User\n    participant B as Preflight Scan\n    participant C as Chart-verifier\n    participant D as DCI-Pipeline\n    participant E as Connect.redhat.com\n    participant F as Certification ready Container, Helmchart, CNF\n    participant G as Openshift-helm-charts/chart\n    participant H as CNF certification suite\n    participant I as CNF Cert-OPs case\n    participant J as Red Hat online Catalog\n    rect rgb(191, 223, 255)\n    note over A, D: Start Pre-testing\n    A-&gt;&gt;B: Start preflight scan\n    B-&gt;&gt;B: Check all test cases\n    B-&gt;&gt;A: All container test cases passed\n    A-&gt;&gt;C: Run chart-verifier\n    C-&gt;&gt;C: Verify test cases\n    C-&gt;&gt;A: All Helm chart Test cases passed\n    A-&gt;&gt;H: Run CNF certification suite\n    H-&gt;&gt;H: Verify test cases\n    H-&gt;&gt;A: CNF Test cases passed or reviewed\n    end\n    rect rgb(0, 240, 100, 0.522)\n    A-&gt;&gt;D: Start oneshot certification automation\n    end\n    rect rgb(0, 255, 222, 0.522)\n    D-&gt;&gt;D: Start container certification process\n    end\n    Note over D: Pipeline jobs: certification project create, update, attach PL, CVE scan, submit, publish\n    D-&gt;&gt;E: Create container project,update, attach to PL\n    D-&gt;&gt;B: Invoke Preflight\n    B-&gt;&gt;F: Preflight test each container sequencially\n    B-&gt;&gt;E: Preflight submit test report to each container project\n    E-&gt;&gt;E: Start update, attach container project, CVE scan\n    E-&gt;&gt;J: Request to publish the container\n    rect rgb(224, 210, 0, 0.18)\n    D-&gt;&gt;D: Hook: Wait up to 1hr for container to appear on catalog\n    end\n    D-&gt;&gt;E: Start query container publication status\n    E-&gt;&gt;D: Confirmation of Container publication\n    rect rgb(0, 255, 222, 0.522)\n    D-&gt;&gt;D: Start oneshot helmchart certification process\n    end\n    Note over D: Pipeline jobs: create, update, attach PL, deploy, helmchart PR\n    D-&gt;&gt;E: Start create helm chart project, update, attach PL and PR to create OWNERS file\n    E-&gt;&gt;G: Request PR to create / update OWNERS file\n    E-&gt;&gt;G: Wait for OWNERS file PR to be completed\n    D-&gt;&gt;C: Invoke chart-verifier\n    C-&gt;&gt;F: Deploy helmchart, run chart-verifier testing\n    C-&gt;&gt;D: Report.yaml generated\n    D-&gt;&gt;G: Start Helm Chart Report with/without chart PR merge to public Chart repository\n    G-&gt;&gt;G: Wait for PR verification to be completed\n    G-&gt;&gt;E: Confirm Helm Chart is merged\n    E-&gt;&gt;J: Helm chart project is published to catalog\n    rect rgb(0, 255, 222, 0.522)\n    D-&gt;&gt;D: Start CNF certification process\n    end\n    Note over D: Pipeline jobs: Openshift-cnf project create, attach PL, create support case\n    D-&gt;&gt;E: Start CNF project creation and attach PL\n    E-&gt;&gt;I: Open CNF cert-ops case automatically\n    D-&gt;&gt;H: Invoke CNF certification suite and running test and submit reports to DCI server\n    rect rgb(0, 240, 100, 0.522)\n    I-&gt;&gt;J: Review CNF test report and Manually approve CNF project to be published to catalog\n    end\n&quot;&#xa;}" id="ffNMeAVZ0jns73hF2dBI-101">
          <mxCell style="shape=image;noLabel=1;verticalAlign=top;imageAspect=1;image=data:image/svg+xml,PHN2ZyBhcmlhLXJvbGVkZXNjcmlwdGlvbj0ic2VxdWVuY2UiIHJvbGU9ImdyYXBoaWNzLWRvY3VtZW50IGRvY3VtZW50IiB2aWV3Qm94PSItNTAgLTEwIDM1OTUuNSAyNjIzIiBzdHlsZT0ibWF4LXdpZHRoOiAzNTk1LjVweDsiIHhtbG5zPSJodHRwOi8vd3d3LnczLm9yZy8yMDAwL3N2ZyIgd2lkdGg9IjEwMCUiIGlkPSJnZU1lcm1haWRPdXRwdXQtMTczNTk0NTM0NjU2NSI+PHJlY3QgY2xhc3M9InJlY3QiIGhlaWdodD0iNjYiIHdpZHRoPSI3MDYiIGZpbGw9InJnYigwLCAyNDAsIDEwMCwgMC41MjIpIiB5PSIyNDUxIiB4PSIyNzA3LjUiPjwvcmVjdD48cmVjdCBjbGFzcz0icmVjdCIgaGVpZ2h0PSIxMjYiIHdpZHRoPSIyNDMiIGZpbGw9InJnYigwLCAyNTUsIDIyMiwgMC41MjIpIiB5PSIyMTI4IiB4PSI4MjIiPjwvcmVjdD48cmVjdCBjbGFzcz0icmVjdCIgaGVpZ2h0PSIxMjYiIHdpZHRoPSIzNDgiIGZpbGw9InJnYigwLCAyNTUsIDIyMiwgMC41MjIpIiB5PSIxNDUzIiB4PSI3NjkuNSI+PC9yZWN0PjxyZWN0IGNsYXNzPSJyZWN0IiBoZWlnaHQ9IjEyNiIgd2lkdGg9IjQxNiIgZmlsbD0icmdiKDIyNCwgMjEwLCAwLCAwLjE4KSIgeT0iMTIyNSIgeD0iNzM1LjUiPjwvcmVjdD48cmVjdCBjbGFzcz0icmVjdCIgaGVpZ2h0PSIxMjYiIHdpZHRoPSIyODAiIGZpbGw9InJnYigwLCAyNTUsIDIyMiwgMC41MjIpIiB5PSI3MzQiIHg9IjgwMy41Ij48L3JlY3Q+PHJlY3QgY2xhc3M9InJlY3QiIGhlaWdodD0iNjYiIHdpZHRoPSI4ODkuNSIgZmlsbD0icmdiKDAsIDI0MCwgMTAwLCAwLjUyMikiIHk9IjY1OCIgeD0iNjQiPjwvcmVjdD48cmVjdCBjbGFzcz0icmVjdCIgaGVpZ2h0PSI1NzMiIHdpZHRoPSIyNTQzIiBmaWxsPSJyZ2IoMTkxLCAyMjMsIDI1NSkiIHk9Ijc1IiB4PSI0MCI+PC9yZWN0PjxnPjxyZWN0IGNsYXNzPSJhY3RvciBhY3Rvci1ib3R0b20iIHJ5PSIzIiByeD0iMyIgbmFtZT0iSiIgaGVpZ2h0PSI2NSIgd2lkdGg9IjE4NiIgc3Ryb2tlPSIjNjY2IiBmaWxsPSIjZWFlYWVhIiB5PSIyNTM3IiB4PSIzMzA5LjUiPjwvcmVjdD48dGV4dCBzdHlsZT0idGV4dC1hbmNob3I6IG1pZGRsZTsgZm9udC1zaXplOiAxNnB4OyBmb250LXdlaWdodDogNDAwOyIgY2xhc3M9ImFjdG9yIGFjdG9yLWJveCIgYWxpZ25tZW50LWJhc2VsaW5lPSJjZW50cmFsIiBkb21pbmFudC1iYXNlbGluZT0iY2VudHJhbCIgeT0iMjU2OS41IiB4PSIzNDAyLjUiPjx0c3BhbiBkeT0iMCIgeD0iMzQwMi41Ij5SZWQgSGF0IG9ubGluZSBDYXRhbG9nPC90c3Bhbj48L3RleHQ+PC9nPjxnPjxyZWN0IGNsYXNzPSJhY3RvciBhY3Rvci1ib3R0b20iIHJ5PSIzIiByeD0iMyIgbmFtZT0iSSIgaGVpZ2h0PSI2NSIgd2lkdGg9IjE2MiIgc3Ryb2tlPSIjNjY2IiBmaWxsPSIjZWFlYWVhIiB5PSIyNTM3IiB4PSIyNjM3LjUiPjwvcmVjdD48dGV4dCBzdHlsZT0idGV4dC1hbmNob3I6IG1pZGRsZTsgZm9udC1zaXplOiAxNnB4OyBmb250LXdlaWdodDogNDAwOyIgY2xhc3M9ImFjdG9yIGFjdG9yLWJveCIgYWxpZ25tZW50LWJhc2VsaW5lPSJjZW50cmFsIiBkb21pbmFudC1iYXNlbGluZT0iY2VudHJhbCIgeT0iMjU2OS41IiB4PSIyNzE4LjUiPjx0c3BhbiBkeT0iMCIgeD0iMjcxOC41Ij5DTkYgQ2VydC1PUHMgY2FzZTwvdHNwYW4+PC90ZXh0PjwvZz48Zz48cmVjdCBjbGFzcz0iYWN0b3IgYWN0b3ItYm90dG9tIiByeT0iMyIgcng9IjMiIG5hbWU9IkgiIGhlaWdodD0iNjUiIHdpZHRoPSIxODEiIHN0cm9rZT0iIzY2NiIgZmlsbD0iI2VhZWFlYSIgeT0iMjUzNyIgeD0iMjQwNi41Ij48L3JlY3Q+PHRleHQgc3R5bGU9InRleHQtYW5jaG9yOiBtaWRkbGU7IGZvbnQtc2l6ZTogMTZweDsgZm9udC13ZWlnaHQ6IDQwMDsiIGNsYXNzPSJhY3RvciBhY3Rvci1ib3giIGFsaWdubWVudC1iYXNlbGluZT0iY2VudHJhbCIgZG9taW5hbnQtYmFzZWxpbmU9ImNlbnRyYWwiIHk9IjI1NjkuNSIgeD0iMjQ5NyI+PHRzcGFuIGR5PSIwIiB4PSIyNDk3Ij5DTkYgY2VydGlmaWNhdGlvbiBzdWl0ZTwvdHNwYW4+PC90ZXh0PjwvZz48Zz48cmVjdCBjbGFzcz0iYWN0b3IgYWN0b3ItYm90dG9tIiByeT0iMyIgcng9IjMiIG5hbWU9IkciIGhlaWdodD0iNjUiIHdpZHRoPSIyMjgiIHN0cm9rZT0iIzY2NiIgZmlsbD0iI2VhZWFlYSIgeT0iMjUzNyIgeD0iMjEyOC41Ij48L3JlY3Q+PHRleHQgc3R5bGU9InRleHQtYW5jaG9yOiBtaWRkbGU7IGZvbnQtc2l6ZTogMTZweDsgZm9udC13ZWlnaHQ6IDQwMDsiIGNsYXNzPSJhY3RvciBhY3Rvci1ib3giIGFsaWdubWVudC1iYXNlbGluZT0iY2VudHJhbCIgZG9taW5hbnQtYmFzZWxpbmU9ImNlbnRyYWwiIHk9IjI1NjkuNSIgeD0iMjI0Mi41Ij48dHNwYW4gZHk9IjAiIHg9IjIyNDIuNSI+T3BlbnNoaWZ0LWhlbG0tY2hhcnRzL2NoYXJ0PC90c3Bhbj48L3RleHQ+PC9nPjxnPjxyZWN0IGNsYXNzPSJhY3RvciBhY3Rvci1ib3R0b20iIHJ5PSIzIiByeD0iMyIgbmFtZT0iRiIgaGVpZ2h0PSI2NSIgd2lkdGg9IjM1MiIgc3Ryb2tlPSIjNjY2IiBmaWxsPSIjZWFlYWVhIiB5PSIyNTM3IiB4PSIxNzI2LjUiPjwvcmVjdD48dGV4dCBzdHlsZT0idGV4dC1hbmNob3I6IG1pZGRsZTsgZm9udC1zaXplOiAxNnB4OyBmb250LXdlaWdodDogNDAwOyIgY2xhc3M9ImFjdG9yIGFjdG9yLWJveCIgYWxpZ25tZW50LWJhc2VsaW5lPSJjZW50cmFsIiBkb21pbmFudC1iYXNlbGluZT0iY2VudHJhbCIgeT0iMjU2OS41IiB4PSIxOTAyLjUiPjx0c3BhbiBkeT0iMCIgeD0iMTkwMi41Ij5DZXJ0aWZpY2F0aW9uIHJlYWR5IENvbnRhaW5lciwgSGVsbWNoYXJ0LCBDTkY8L3RzcGFuPjwvdGV4dD48L2c+PGc+PHJlY3QgY2xhc3M9ImFjdG9yIGFjdG9yLWJvdHRvbSIgcnk9IjMiIHJ4PSIzIiBuYW1lPSJFIiBoZWlnaHQ9IjY1IiB3aWR0aD0iMTY4IiBzdHJva2U9IiM2NjYiIGZpbGw9IiNlYWVhZWEiIHk9IjI1MzciIHg9IjE1MDguNSI+PC9yZWN0Pjx0ZXh0IHN0eWxlPSJ0ZXh0LWFuY2hvcjogbWlkZGxlOyBmb250LXNpemU6IDE2cHg7IGZvbnQtd2VpZ2h0OiA0MDA7IiBjbGFzcz0iYWN0b3IgYWN0b3ItYm94IiBhbGlnbm1lbnQtYmFzZWxpbmU9ImNlbnRyYWwiIGRvbWluYW50LWJhc2VsaW5lPSJjZW50cmFsIiB5PSIyNTY5LjUiIHg9IjE1OTIuNSI+PHRzcGFuIGR5PSIwIiB4PSIxNTkyLjUiPkNvbm5lY3QucmVkaGF0LmNvbTwvdHNwYW4+PC90ZXh0PjwvZz48Zz48cmVjdCBjbGFzcz0iYWN0b3IgYWN0b3ItYm90dG9tIiByeT0iMyIgcng9IjMiIG5hbWU9IkQiIGhlaWdodD0iNjUiIHdpZHRoPSIxNTAiIHN0cm9rZT0iIzY2NiIgZmlsbD0iI2VhZWFlYSIgeT0iMjUzNyIgeD0iODY3LjUiPjwvcmVjdD48dGV4dCBzdHlsZT0idGV4dC1hbmNob3I6IG1pZGRsZTsgZm9udC1zaXplOiAxNnB4OyBmb250LXdlaWdodDogNDAwOyIgY2xhc3M9ImFjdG9yIGFjdG9yLWJveCIgYWxpZ25tZW50LWJhc2VsaW5lPSJjZW50cmFsIiBkb21pbmFudC1iYXNlbGluZT0iY2VudHJhbCIgeT0iMjU2OS41IiB4PSI5NDIuNSI+PHRzcGFuIGR5PSIwIiB4PSI5NDIuNSI+RENJLVBpcGVsaW5lPC90c3Bhbj48L3RleHQ+PC9nPjxnPjxyZWN0IGNsYXNzPSJhY3RvciBhY3Rvci1ib3R0b20iIHJ5PSIzIiByeD0iMyIgbmFtZT0iQyIgaGVpZ2h0PSI2NSIgd2lkdGg9IjE1MCIgc3Ryb2tlPSIjNjY2IiBmaWxsPSIjZWFlYWVhIiB5PSIyNTM3IiB4PSI0OTUiPjwvcmVjdD48dGV4dCBzdHlsZT0idGV4dC1hbmNob3I6IG1pZGRsZTsgZm9udC1zaXplOiAxNnB4OyBmb250LXdlaWdodDogNDAwOyIgY2xhc3M9ImFjdG9yIGFjdG9yLWJveCIgYWxpZ25tZW50LWJhc2VsaW5lPSJjZW50cmFsIiBkb21pbmFudC1iYXNlbGluZT0iY2VudHJhbCIgeT0iMjU2OS41IiB4PSI1NzAiPjx0c3BhbiBkeT0iMCIgeD0iNTcwIj5DaGFydC12ZXJpZmllcjwvdHNwYW4+PC90ZXh0PjwvZz48Zz48cmVjdCBjbGFzcz0iYWN0b3IgYWN0b3ItYm90dG9tIiByeT0iMyIgcng9IjMiIG5hbWU9IkIiIGhlaWdodD0iNjUiIHdpZHRoPSIxNTAiIHN0cm9rZT0iIzY2NiIgZmlsbD0iI2VhZWFlYSIgeT0iMjUzNyIgeD0iMjk1Ij48L3JlY3Q+PHRleHQgc3R5bGU9InRleHQtYW5jaG9yOiBtaWRkbGU7IGZvbnQtc2l6ZTogMTZweDsgZm9udC13ZWlnaHQ6IDQwMDsiIGNsYXNzPSJhY3RvciBhY3Rvci1ib3giIGFsaWdubWVudC1iYXNlbGluZT0iY2VudHJhbCIgZG9taW5hbnQtYmFzZWxpbmU9ImNlbnRyYWwiIHk9IjI1NjkuNSIgeD0iMzcwIj48dHNwYW4gZHk9IjAiIHg9IjM3MCI+UHJlZmxpZ2h0IFNjYW48L3RzcGFuPjwvdGV4dD48L2c+PGc+PHJlY3QgY2xhc3M9ImFjdG9yIGFjdG9yLWJvdHRvbSIgcnk9IjMiIHJ4PSIzIiBuYW1lPSJBIiBoZWlnaHQ9IjY1IiB3aWR0aD0iMTUwIiBzdHJva2U9IiM2NjYiIGZpbGw9IiNlYWVhZWEiIHk9IjI1MzciIHg9IjAiPjwvcmVjdD48dGV4dCBzdHlsZT0idGV4dC1hbmNob3I6IG1pZGRsZTsgZm9udC1zaXplOiAxNnB4OyBmb250LXdlaWdodDogNDAwOyIgY2xhc3M9ImFjdG9yIGFjdG9yLWJveCIgYWxpZ25tZW50LWJhc2VsaW5lPSJjZW50cmFsIiBkb21pbmFudC1iYXNlbGluZT0iY2VudHJhbCIgeT0iMjU2OS41IiB4PSI3NSI+PHRzcGFuIGR5PSIwIiB4PSI3NSI+VXNlcjwvdHNwYW4+PC90ZXh0PjwvZz48Zz48bGluZSBuYW1lPSJKIiBzdHJva2U9IiM5OTkiIHN0cm9rZS13aWR0aD0iMC41cHgiIGNsYXNzPSJhY3Rvci1saW5lIDIwMCIgeTI9IjI1MzciIHgyPSIzNDAyLjUiIHkxPSI2NSIgeDE9IjM0MDIuNSIgaWQ9ImFjdG9yMTkiPjwvbGluZT48ZyBpZD0icm9vdC0xOSI+PHJlY3QgY2xhc3M9ImFjdG9yIGFjdG9yLXRvcCIgcnk9IjMiIHJ4PSIzIiBuYW1lPSJKIiBoZWlnaHQ9IjY1IiB3aWR0aD0iMTg2IiBzdHJva2U9IiM2NjYiIGZpbGw9IiNlYWVhZWEiIHk9IjAiIHg9IjMzMDkuNSI+PC9yZWN0Pjx0ZXh0IHN0eWxlPSJ0ZXh0LWFuY2hvcjogbWlkZGxlOyBmb250LXNpemU6IDE2cHg7IGZvbnQtd2VpZ2h0OiA0MDA7IiBjbGFzcz0iYWN0b3IgYWN0b3ItYm94IiBhbGlnbm1lbnQtYmFzZWxpbmU9ImNlbnRyYWwiIGRvbWluYW50LWJhc2VsaW5lPSJjZW50cmFsIiB5PSIzMi41IiB4PSIzNDAyLjUiPjx0c3BhbiBkeT0iMCIgeD0iMzQwMi41Ij5SZWQgSGF0IG9ubGluZSBDYXRhbG9nPC90c3Bhbj48L3RleHQ+PC9nPjwvZz48Zz48bGluZSBuYW1lPSJJIiBzdHJva2U9IiM5OTkiIHN0cm9rZS13aWR0aD0iMC41cHgiIGNsYXNzPSJhY3Rvci1saW5lIDIwMCIgeTI9IjI1MzciIHgyPSIyNzE4LjUiIHkxPSI2NSIgeDE9IjI3MTguNSIgaWQ9ImFjdG9yMTgiPjwvbGluZT48ZyBpZD0icm9vdC0xOCI+PHJlY3QgY2xhc3M9ImFjdG9yIGFjdG9yLXRvcCIgcnk9IjMiIHJ4PSIzIiBuYW1lPSJJIiBoZWlnaHQ9IjY1IiB3aWR0aD0iMTYyIiBzdHJva2U9IiM2NjYiIGZpbGw9IiNlYWVhZWEiIHk9IjAiIHg9IjI2MzcuNSI+PC9yZWN0Pjx0ZXh0IHN0eWxlPSJ0ZXh0LWFuY2hvcjogbWlkZGxlOyBmb250LXNpemU6IDE2cHg7IGZvbnQtd2VpZ2h0OiA0MDA7IiBjbGFzcz0iYWN0b3IgYWN0b3ItYm94IiBhbGlnbm1lbnQtYmFzZWxpbmU9ImNlbnRyYWwiIGRvbWluYW50LWJhc2VsaW5lPSJjZW50cmFsIiB5PSIzMi41IiB4PSIyNzE4LjUiPjx0c3BhbiBkeT0iMCIgeD0iMjcxOC41Ij5DTkYgQ2VydC1PUHMgY2FzZTwvdHNwYW4+PC90ZXh0PjwvZz48L2c+PGc+PGxpbmUgbmFtZT0iSCIgc3Ryb2tlPSIjOTk5IiBzdHJva2Utd2lkdGg9IjAuNXB4IiBjbGFzcz0iYWN0b3ItbGluZSAyMDAiIHkyPSIyNTM3IiB4Mj0iMjQ5NyIgeTE9IjY1IiB4MT0iMjQ5NyIgaWQ9ImFjdG9yMTciPjwvbGluZT48ZyBpZD0icm9vdC0xNyI+PHJlY3QgY2xhc3M9ImFjdG9yIGFjdG9yLXRvcCIgcnk9IjMiIHJ4PSIzIiBuYW1lPSJIIiBoZWlnaHQ9IjY1IiB3aWR0aD0iMTgxIiBzdHJva2U9IiM2NjYiIGZpbGw9IiNlYWVhZWEiIHk9IjAiIHg9IjI0MDYuNSI+PC9yZWN0Pjx0ZXh0IHN0eWxlPSJ0ZXh0LWFuY2hvcjogbWlkZGxlOyBmb250LXNpemU6IDE2cHg7IGZvbnQtd2VpZ2h0OiA0MDA7IiBjbGFzcz0iYWN0b3IgYWN0b3ItYm94IiBhbGlnbm1lbnQtYmFzZWxpbmU9ImNlbnRyYWwiIGRvbWluYW50LWJhc2VsaW5lPSJjZW50cmFsIiB5PSIzMi41IiB4PSIyNDk3Ij48dHNwYW4gZHk9IjAiIHg9IjI0OTciPkNORiBjZXJ0aWZpY2F0aW9uIHN1aXRlPC90c3Bhbj48L3RleHQ+PC9nPjwvZz48Zz48bGluZSBuYW1lPSJHIiBzdHJva2U9IiM5OTkiIHN0cm9rZS13aWR0aD0iMC41cHgiIGNsYXNzPSJhY3Rvci1saW5lIDIwMCIgeTI9IjI1MzciIHgyPSIyMjQyLjUiIHkxPSI2NSIgeDE9IjIyNDIuNSIgaWQ9ImFjdG9yMTYiPjwvbGluZT48ZyBpZD0icm9vdC0xNiI+PHJlY3QgY2xhc3M9ImFjdG9yIGFjdG9yLXRvcCIgcnk9IjMiIHJ4PSIzIiBuYW1lPSJHIiBoZWlnaHQ9IjY1IiB3aWR0aD0iMjI4IiBzdHJva2U9IiM2NjYiIGZpbGw9IiNlYWVhZWEiIHk9IjAiIHg9IjIxMjguNSI+PC9yZWN0Pjx0ZXh0IHN0eWxlPSJ0ZXh0LWFuY2hvcjogbWlkZGxlOyBmb250LXNpemU6IDE2cHg7IGZvbnQtd2VpZ2h0OiA0MDA7IiBjbGFzcz0iYWN0b3IgYWN0b3ItYm94IiBhbGlnbm1lbnQtYmFzZWxpbmU9ImNlbnRyYWwiIGRvbWluYW50LWJhc2VsaW5lPSJjZW50cmFsIiB5PSIzMi41IiB4PSIyMjQyLjUiPjx0c3BhbiBkeT0iMCIgeD0iMjI0Mi41Ij5PcGVuc2hpZnQtaGVsbS1jaGFydHMvY2hhcnQ8L3RzcGFuPjwvdGV4dD48L2c+PC9nPjxnPjxsaW5lIG5hbWU9IkYiIHN0cm9rZT0iIzk5OSIgc3Ryb2tlLXdpZHRoPSIwLjVweCIgY2xhc3M9ImFjdG9yLWxpbmUgMjAwIiB5Mj0iMjUzNyIgeDI9IjE5MDIuNSIgeTE9IjY1IiB4MT0iMTkwMi41IiBpZD0iYWN0b3IxNSI+PC9saW5lPjxnIGlkPSJyb290LTE1Ij48cmVjdCBjbGFzcz0iYWN0b3IgYWN0b3ItdG9wIiByeT0iMyIgcng9IjMiIG5hbWU9IkYiIGhlaWdodD0iNjUiIHdpZHRoPSIzNTIiIHN0cm9rZT0iIzY2NiIgZmlsbD0iI2VhZWFlYSIgeT0iMCIgeD0iMTcyNi41Ij48L3JlY3Q+PHRleHQgc3R5bGU9InRleHQtYW5jaG9yOiBtaWRkbGU7IGZvbnQtc2l6ZTogMTZweDsgZm9udC13ZWlnaHQ6IDQwMDsiIGNsYXNzPSJhY3RvciBhY3Rvci1ib3giIGFsaWdubWVudC1iYXNlbGluZT0iY2VudHJhbCIgZG9taW5hbnQtYmFzZWxpbmU9ImNlbnRyYWwiIHk9IjMyLjUiIHg9IjE5MDIuNSI+PHRzcGFuIGR5PSIwIiB4PSIxOTAyLjUiPkNlcnRpZmljYXRpb24gcmVhZHkgQ29udGFpbmVyLCBIZWxtY2hhcnQsIENORjwvdHNwYW4+PC90ZXh0PjwvZz48L2c+PGc+PGxpbmUgbmFtZT0iRSIgc3Ryb2tlPSIjOTk5IiBzdHJva2Utd2lkdGg9IjAuNXB4IiBjbGFzcz0iYWN0b3ItbGluZSAyMDAiIHkyPSIyNTM3IiB4Mj0iMTU5Mi41IiB5MT0iNjUiIHgxPSIxNTkyLjUiIGlkPSJhY3RvcjE0Ij48L2xpbmU+PGcgaWQ9InJvb3QtMTQiPjxyZWN0IGNsYXNzPSJhY3RvciBhY3Rvci10b3AiIHJ5PSIzIiByeD0iMyIgbmFtZT0iRSIgaGVpZ2h0PSI2NSIgd2lkdGg9IjE2OCIgc3Ryb2tlPSIjNjY2IiBmaWxsPSIjZWFlYWVhIiB5PSIwIiB4PSIxNTA4LjUiPjwvcmVjdD48dGV4dCBzdHlsZT0idGV4dC1hbmNob3I6IG1pZGRsZTsgZm9udC1zaXplOiAxNnB4OyBmb250LXdlaWdodDogNDAwOyIgY2xhc3M9ImFjdG9yIGFjdG9yLWJveCIgYWxpZ25tZW50LWJhc2VsaW5lPSJjZW50cmFsIiBkb21pbmFudC1iYXNlbGluZT0iY2VudHJhbCIgeT0iMzIuNSIgeD0iMTU5Mi41Ij48dHNwYW4gZHk9IjAiIHg9IjE1OTIuNSI+Q29ubmVjdC5yZWRoYXQuY29tPC90c3Bhbj48L3RleHQ+PC9nPjwvZz48Zz48bGluZSBuYW1lPSJEIiBzdHJva2U9IiM5OTkiIHN0cm9rZS13aWR0aD0iMC41cHgiIGNsYXNzPSJhY3Rvci1saW5lIDIwMCIgeTI9IjI1MzciIHgyPSI5NDIuNSIgeTE9IjY1IiB4MT0iOTQyLjUiIGlkPSJhY3RvcjEzIj48L2xpbmU+PGcgaWQ9InJvb3QtMTMiPjxyZWN0IGNsYXNzPSJhY3RvciBhY3Rvci10b3AiIHJ5PSIzIiByeD0iMyIgbmFtZT0iRCIgaGVpZ2h0PSI2NSIgd2lkdGg9IjE1MCIgc3Ryb2tlPSIjNjY2IiBmaWxsPSIjZWFlYWVhIiB5PSIwIiB4PSI4NjcuNSI+PC9yZWN0Pjx0ZXh0IHN0eWxlPSJ0ZXh0LWFuY2hvcjogbWlkZGxlOyBmb250LXNpemU6IDE2cHg7IGZvbnQtd2VpZ2h0OiA0MDA7IiBjbGFzcz0iYWN0b3IgYWN0b3ItYm94IiBhbGlnbm1lbnQtYmFzZWxpbmU9ImNlbnRyYWwiIGRvbWluYW50LWJhc2VsaW5lPSJjZW50cmFsIiB5PSIzMi41IiB4PSI5NDIuNSI+PHRzcGFuIGR5PSIwIiB4PSI5NDIuNSI+RENJLVBpcGVsaW5lPC90c3Bhbj48L3RleHQ+PC9nPjwvZz48Zz48bGluZSBuYW1lPSJDIiBzdHJva2U9IiM5OTkiIHN0cm9rZS13aWR0aD0iMC41cHgiIGNsYXNzPSJhY3Rvci1saW5lIDIwMCIgeTI9IjI1MzciIHgyPSI1NzAiIHkxPSI2NSIgeDE9IjU3MCIgaWQ9ImFjdG9yMTIiPjwvbGluZT48ZyBpZD0icm9vdC0xMiI+PHJlY3QgY2xhc3M9ImFjdG9yIGFjdG9yLXRvcCIgcnk9IjMiIHJ4PSIzIiBuYW1lPSJDIiBoZWlnaHQ9IjY1IiB3aWR0aD0iMTUwIiBzdHJva2U9IiM2NjYiIGZpbGw9IiNlYWVhZWEiIHk9IjAiIHg9IjQ5NSI+PC9yZWN0Pjx0ZXh0IHN0eWxlPSJ0ZXh0LWFuY2hvcjogbWlkZGxlOyBmb250LXNpemU6IDE2cHg7IGZvbnQtd2VpZ2h0OiA0MDA7IiBjbGFzcz0iYWN0b3IgYWN0b3ItYm94IiBhbGlnbm1lbnQtYmFzZWxpbmU9ImNlbnRyYWwiIGRvbWluYW50LWJhc2VsaW5lPSJjZW50cmFsIiB5PSIzMi41IiB4PSI1NzAiPjx0c3BhbiBkeT0iMCIgeD0iNTcwIj5DaGFydC12ZXJpZmllcjwvdHNwYW4+PC90ZXh0PjwvZz48L2c+PGc+PGxpbmUgbmFtZT0iQiIgc3Ryb2tlPSIjOTk5IiBzdHJva2Utd2lkdGg9IjAuNXB4IiBjbGFzcz0iYWN0b3ItbGluZSAyMDAiIHkyPSIyNTM3IiB4Mj0iMzcwIiB5MT0iNjUiIHgxPSIzNzAiIGlkPSJhY3RvcjExIj48L2xpbmU+PGcgaWQ9InJvb3QtMTEiPjxyZWN0IGNsYXNzPSJhY3RvciBhY3Rvci10b3AiIHJ5PSIzIiByeD0iMyIgbmFtZT0iQiIgaGVpZ2h0PSI2NSIgd2lkdGg9IjE1MCIgc3Ryb2tlPSIjNjY2IiBmaWxsPSIjZWFlYWVhIiB5PSIwIiB4PSIyOTUiPjwvcmVjdD48dGV4dCBzdHlsZT0idGV4dC1hbmNob3I6IG1pZGRsZTsgZm9udC1zaXplOiAxNnB4OyBmb250LXdlaWdodDogNDAwOyIgY2xhc3M9ImFjdG9yIGFjdG9yLWJveCIgYWxpZ25tZW50LWJhc2VsaW5lPSJjZW50cmFsIiBkb21pbmFudC1iYXNlbGluZT0iY2VudHJhbCIgeT0iMzIuNSIgeD0iMzcwIj48dHNwYW4gZHk9IjAiIHg9IjM3MCI+UHJlZmxpZ2h0IFNjYW48L3RzcGFuPjwvdGV4dD48L2c+PC9nPjxnPjxsaW5lIG5hbWU9IkEiIHN0cm9rZT0iIzk5OSIgc3Ryb2tlLXdpZHRoPSIwLjVweCIgY2xhc3M9ImFjdG9yLWxpbmUgMjAwIiB5Mj0iMjUzNyIgeDI9Ijc1IiB5MT0iNjUiIHgxPSI3NSIgaWQ9ImFjdG9yMTAiPjwvbGluZT48ZyBpZD0icm9vdC0xMCI+PHJlY3QgY2xhc3M9ImFjdG9yIGFjdG9yLXRvcCIgcnk9IjMiIHJ4PSIzIiBuYW1lPSJBIiBoZWlnaHQ9IjY1IiB3aWR0aD0iMTUwIiBzdHJva2U9IiM2NjYiIGZpbGw9IiNlYWVhZWEiIHk9IjAiIHg9IjAiPjwvcmVjdD48dGV4dCBzdHlsZT0idGV4dC1hbmNob3I6IG1pZGRsZTsgZm9udC1zaXplOiAxNnB4OyBmb250LXdlaWdodDogNDAwOyIgY2xhc3M9ImFjdG9yIGFjdG9yLWJveCIgYWxpZ25tZW50LWJhc2VsaW5lPSJjZW50cmFsIiBkb21pbmFudC1iYXNlbGluZT0iY2VudHJhbCIgeT0iMzIuNSIgeD0iNzUiPjx0c3BhbiBkeT0iMCIgeD0iNzUiPlVzZXI8L3RzcGFuPjwvdGV4dD48L2c+PC9nPjxzdHlsZT4jZ2VNZXJtYWlkT3V0cHV0LTE3MzU5NDUzNDY1NjV7Zm9udC1mYW1pbHk6InRyZWJ1Y2hldCBtcyIsdmVyZGFuYSxhcmlhbCxzYW5zLXNlcmlmO2ZvbnQtc2l6ZToxNnB4O2ZpbGw6IzAwMDAwMDt9I2dlTWVybWFpZE91dHB1dC0xNzM1OTQ1MzQ2NTY1IC5lcnJvci1pY29ue2ZpbGw6IzU1MjIyMjt9I2dlTWVybWFpZE91dHB1dC0xNzM1OTQ1MzQ2NTY1IC5lcnJvci10ZXh0e2ZpbGw6IzU1MjIyMjtzdHJva2U6IzU1MjIyMjt9I2dlTWVybWFpZE91dHB1dC0xNzM1OTQ1MzQ2NTY1IC5lZGdlLXRoaWNrbmVzcy1ub3JtYWx7c3Ryb2tlLXdpZHRoOjFweDt9I2dlTWVybWFpZE91dHB1dC0xNzM1OTQ1MzQ2NTY1IC5lZGdlLXRoaWNrbmVzcy10aGlja3tzdHJva2Utd2lkdGg6My41cHg7fSNnZU1lcm1haWRPdXRwdXQtMTczNTk0NTM0NjU2NSAuZWRnZS1wYXR0ZXJuLXNvbGlke3N0cm9rZS1kYXNoYXJyYXk6MDt9I2dlTWVybWFpZE91dHB1dC0xNzM1OTQ1MzQ2NTY1IC5lZGdlLXRoaWNrbmVzcy1pbnZpc2libGV7c3Ryb2tlLXdpZHRoOjA7ZmlsbDpub25lO30jZ2VNZXJtYWlkT3V0cHV0LTE3MzU5NDUzNDY1NjUgLmVkZ2UtcGF0dGVybi1kYXNoZWR7c3Ryb2tlLWRhc2hhcnJheTozO30jZ2VNZXJtYWlkT3V0cHV0LTE3MzU5NDUzNDY1NjUgLmVkZ2UtcGF0dGVybi1kb3R0ZWR7c3Ryb2tlLWRhc2hhcnJheToyO30jZ2VNZXJtYWlkT3V0cHV0LTE3MzU5NDUzNDY1NjUgLm1hcmtlcntmaWxsOiMwMDAwMDA7c3Ryb2tlOiMwMDAwMDA7fSNnZU1lcm1haWRPdXRwdXQtMTczNTk0NTM0NjU2NSAubWFya2VyLmNyb3Nze3N0cm9rZTojMDAwMDAwO30jZ2VNZXJtYWlkT3V0cHV0LTE3MzU5NDUzNDY1NjUgc3Zne2ZvbnQtZmFtaWx5OiJ0cmVidWNoZXQgbXMiLHZlcmRhbmEsYXJpYWwsc2Fucy1zZXJpZjtmb250LXNpemU6MTZweDt9I2dlTWVybWFpZE91dHB1dC0xNzM1OTQ1MzQ2NTY1IHB7bWFyZ2luOjA7fSNnZU1lcm1haWRPdXRwdXQtMTczNTk0NTM0NjU2NSAuYWN0b3J7c3Ryb2tlOmhzbCg3OC4xNTc4OTQ3MzY4LCA1OC40NjE1Mzg0NjE1JSwgNTQuNTA5ODAzOTIxNiUpO2ZpbGw6I2NkZTQ5ODt9I2dlTWVybWFpZE91dHB1dC0xNzM1OTQ1MzQ2NTY1IHRleHQuYWN0b3ImZ3Q7dHNwYW57ZmlsbDpibGFjaztzdHJva2U6bm9uZTt9I2dlTWVybWFpZE91dHB1dC0xNzM1OTQ1MzQ2NTY1IC5hY3Rvci1saW5le3N0cm9rZTpoc2woNzguMTU3ODk0NzM2OCwgNTguNDYxNTM4NDYxNSUsIDU0LjUwOTgwMzkyMTYlKTt9I2dlTWVybWFpZE91dHB1dC0xNzM1OTQ1MzQ2NTY1IC5tZXNzYWdlTGluZTB7c3Ryb2tlLXdpZHRoOjEuNTtzdHJva2UtZGFzaGFycmF5Om5vbmU7c3Ryb2tlOiMzMzM7fSNnZU1lcm1haWRPdXRwdXQtMTczNTk0NTM0NjU2NSAubWVzc2FnZUxpbmUxe3N0cm9rZS13aWR0aDoxLjU7c3Ryb2tlLWRhc2hhcnJheToyLDI7c3Ryb2tlOiMzMzM7fSNnZU1lcm1haWRPdXRwdXQtMTczNTk0NTM0NjU2NSAjYXJyb3doZWFkIHBhdGh7ZmlsbDojMzMzO3N0cm9rZTojMzMzO30jZ2VNZXJtYWlkT3V0cHV0LTE3MzU5NDUzNDY1NjUgLnNlcXVlbmNlTnVtYmVye2ZpbGw6d2hpdGU7fSNnZU1lcm1haWRPdXRwdXQtMTczNTk0NTM0NjU2NSAjc2VxdWVuY2VudW1iZXJ7ZmlsbDojMzMzO30jZ2VNZXJtYWlkT3V0cHV0LTE3MzU5NDUzNDY1NjUgI2Nyb3NzaGVhZCBwYXRoe2ZpbGw6IzMzMztzdHJva2U6IzMzMzt9I2dlTWVybWFpZE91dHB1dC0xNzM1OTQ1MzQ2NTY1IC5tZXNzYWdlVGV4dHtmaWxsOiMzMzM7c3Ryb2tlOm5vbmU7fSNnZU1lcm1haWRPdXRwdXQtMTczNTk0NTM0NjU2NSAubGFiZWxCb3h7c3Ryb2tlOiMzMjY5MzI7ZmlsbDojY2RlNDk4O30jZ2VNZXJtYWlkT3V0cHV0LTE3MzU5NDUzNDY1NjUgLmxhYmVsVGV4dCwjZ2VNZXJtYWlkT3V0cHV0LTE3MzU5NDUzNDY1NjUgLmxhYmVsVGV4dCZndDt0c3BhbntmaWxsOmJsYWNrO3N0cm9rZTpub25lO30jZ2VNZXJtYWlkT3V0cHV0LTE3MzU5NDUzNDY1NjUgLmxvb3BUZXh0LCNnZU1lcm1haWRPdXRwdXQtMTczNTk0NTM0NjU2NSAubG9vcFRleHQmZ3Q7dHNwYW57ZmlsbDpibGFjaztzdHJva2U6bm9uZTt9I2dlTWVybWFpZE91dHB1dC0xNzM1OTQ1MzQ2NTY1IC5sb29wTGluZXtzdHJva2Utd2lkdGg6MnB4O3N0cm9rZS1kYXNoYXJyYXk6MiwyO3N0cm9rZTojMzI2OTMyO2ZpbGw6IzMyNjkzMjt9I2dlTWVybWFpZE91dHB1dC0xNzM1OTQ1MzQ2NTY1IC5ub3Rle3N0cm9rZTojNmVhYTQ5O2ZpbGw6I2ZmZjVhZDt9I2dlTWVybWFpZE91dHB1dC0xNzM1OTQ1MzQ2NTY1IC5ub3RlVGV4dCwjZ2VNZXJtYWlkT3V0cHV0LTE3MzU5NDUzNDY1NjUgLm5vdGVUZXh0Jmd0O3RzcGFue2ZpbGw6YmxhY2s7c3Ryb2tlOm5vbmU7fSNnZU1lcm1haWRPdXRwdXQtMTczNTk0NTM0NjU2NSAuYWN0aXZhdGlvbjB7ZmlsbDojZjRmNGY0O3N0cm9rZTojNjY2O30jZ2VNZXJtYWlkT3V0cHV0LTE3MzU5NDUzNDY1NjUgLmFjdGl2YXRpb24xe2ZpbGw6I2Y0ZjRmNDtzdHJva2U6IzY2Njt9I2dlTWVybWFpZE91dHB1dC0xNzM1OTQ1MzQ2NTY1IC5hY3RpdmF0aW9uMntmaWxsOiNmNGY0ZjQ7c3Ryb2tlOiM2NjY7fSNnZU1lcm1haWRPdXRwdXQtMTczNTk0NTM0NjU2NSAuYWN0b3JQb3B1cE1lbnV7cG9zaXRpb246YWJzb2x1dGU7fSNnZU1lcm1haWRPdXRwdXQtMTczNTk0NTM0NjU2NSAuYWN0b3JQb3B1cE1lbnVQYW5lbHtwb3NpdGlvbjphYnNvbHV0ZTtmaWxsOiNjZGU0OTg7Ym94LXNoYWRvdzowcHggOHB4IDE2cHggMHB4IHJnYmEoMCwwLDAsMC4yKTtmaWx0ZXI6ZHJvcC1zaGFkb3coM3B4IDVweCAycHggcmdiKDAgMCAwIC8gMC40KSk7fSNnZU1lcm1haWRPdXRwdXQtMTczNTk0NTM0NjU2NSAuYWN0b3ItbWFuIGxpbmV7c3Ryb2tlOmhzbCg3OC4xNTc4OTQ3MzY4LCA1OC40NjE1Mzg0NjE1JSwgNTQuNTA5ODAzOTIxNiUpO2ZpbGw6I2NkZTQ5ODt9I2dlTWVybWFpZE91dHB1dC0xNzM1OTQ1MzQ2NTY1IC5hY3Rvci1tYW4gY2lyY2xlLCNnZU1lcm1haWRPdXRwdXQtMTczNTk0NTM0NjU2NSBsaW5le3N0cm9rZTpoc2woNzguMTU3ODk0NzM2OCwgNTguNDYxNTM4NDYxNSUsIDU0LjUwOTgwMzkyMTYlKTtmaWxsOiNjZGU0OTg7c3Ryb2tlLXdpZHRoOjJweDt9I2dlTWVybWFpZE91dHB1dC0xNzM1OTQ1MzQ2NTY1IC5tZXNzYWdlTGluZTA6bnRoLW9mLXR5cGUoMil7c3Ryb2tlOmJsYWNrO30jZ2VNZXJtYWlkT3V0cHV0LTE3MzU5NDUzNDY1NjUgZzpudGgtb2YtdHlwZSg1KSAubm90ZXtzdHJva2U6Ymx1ZTtmaWxsOmNyaW1zb247Zm9udC1zaXplOjE2cHg7fSNnZU1lcm1haWRPdXRwdXQtMTczNTk0NTM0NjU2NSAjYXJyb3doZWFkIHBhdGh7c3Ryb2tlOmJsdWU7ZmlsbDpyZWQ7fSNnZU1lcm1haWRPdXRwdXQtMTczNTk0NTM0NjU2NSB0ZXh0e2ZvbnQtc2l6ZToxNnB4O30jZ2VNZXJtYWlkT3V0cHV0LTE3MzU5NDUzNDY1NjUgOnJvb3R7LS1tZXJtYWlkLWZvbnQtZmFtaWx5OiJ0cmVidWNoZXQgbXMiLHZlcmRhbmEsYXJpYWwsc2Fucy1zZXJpZjt9PC9zdHlsZT48Zz48L2c+PGRlZnM+PHN5bWJvbCBoZWlnaHQ9IjI0IiB3aWR0aD0iMjQiIGlkPSJjb21wdXRlciI+PHBhdGggZD0iTTIgMnYxM2gyMHYtMTNoLTIwem0xOCAxMWgtMTZ2LTloMTZ2OXptLTEwLjIyOCA2bC40NjYtMWgzLjUyNGwuNDY3IDFoLTQuNDU3em0xNC4yMjggM2gtMjRsMi02aDIuMTA0bC0xLjMzIDRoMTguNDVsLTEuMjk3LTRoMi4wNzNsMiA2em0tNS0xMGgtMTR2LTdoMTR2N3oiIHRyYW5zZm9ybT0ic2NhbGUoLjUpIj48L3BhdGg+PC9zeW1ib2w+PC9kZWZzPjxkZWZzPjxzeW1ib2wgY2xpcC1ydWxlPSJldmVub2RkIiBmaWxsLXJ1bGU9ImV2ZW5vZGQiIGlkPSJkYXRhYmFzZSI+PHBhdGggZD0iTTEyLjI1OC4wMDFsLjI1Ni4wMDQuMjU1LjAwNS4yNTMuMDA4LjI1MS4wMS4yNDkuMDEyLjI0Ny4wMTUuMjQ2LjAxNi4yNDIuMDE5LjI0MS4wMi4yMzkuMDIzLjIzNi4wMjQuMjMzLjAyNy4yMzEuMDI4LjIyOS4wMzEuMjI1LjAzMi4yMjMuMDM0LjIyLjAzNi4yMTcuMDM4LjIxNC4wNC4yMTEuMDQxLjIwOC4wNDMuMjA1LjA0NS4yMDEuMDQ2LjE5OC4wNDguMTk0LjA1LjE5MS4wNTEuMTg3LjA1My4xODMuMDU0LjE4LjA1Ni4xNzUuMDU3LjE3Mi4wNTkuMTY4LjA2LjE2My4wNjEuMTYuMDYzLjE1NS4wNjQuMTUuMDY2LjA3NC4wMzMuMDczLjAzMy4wNzEuMDM0LjA3LjAzNC4wNjkuMDM1LjA2OC4wMzUuMDY3LjAzNS4wNjYuMDM1LjA2NC4wMzYuMDY0LjAzNi4wNjIuMDM2LjA2LjAzNi4wNi4wMzcuMDU4LjAzNy4wNTguMDM3LjA1NS4wMzguMDU1LjAzOC4wNTMuMDM4LjA1Mi4wMzguMDUxLjAzOS4wNS4wMzkuMDQ4LjAzOS4wNDcuMDM5LjA0NS4wNC4wNDQuMDQuMDQzLjA0LjA0MS4wNC4wNC4wNDEuMDM5LjA0MS4wMzcuMDQxLjAzNi4wNDEuMDM0LjA0MS4wMzMuMDQyLjAzMi4wNDIuMDMuMDQyLjAyOS4wNDIuMDI3LjA0Mi4wMjYuMDQzLjAyNC4wNDMuMDIzLjA0My4wMjEuMDQzLjAyLjA0My4wMTguMDQ0LjAxNy4wNDMuMDE1LjA0NC4wMTMuMDQ0LjAxMi4wNDQuMDExLjA0NS4wMDkuMDQ0LjAwNy4wNDUuMDA2LjA0NS4wMDQuMDQ1LjAwMi4wNDUuMDAxLjA0NXYxN2wtLjAwMS4wNDUtLjAwMi4wNDUtLjAwNC4wNDUtLjAwNi4wNDUtLjAwNy4wNDUtLjAwOS4wNDQtLjAxMS4wNDUtLjAxMi4wNDQtLjAxMy4wNDQtLjAxNS4wNDQtLjAxNy4wNDMtLjAxOC4wNDQtLjAyLjA0My0uMDIxLjA0My0uMDIzLjA0My0uMDI0LjA0My0uMDI2LjA0My0uMDI3LjA0Mi0uMDI5LjA0Mi0uMDMuMDQyLS4wMzIuMDQyLS4wMzMuMDQyLS4wMzQuMDQxLS4wMzYuMDQxLS4wMzcuMDQxLS4wMzkuMDQxLS4wNC4wNDEtLjA0MS4wNC0uMDQzLjA0LS4wNDQuMDQtLjA0NS4wNC0uMDQ3LjAzOS0uMDQ4LjAzOS0uMDUuMDM5LS4wNTEuMDM5LS4wNTIuMDM4LS4wNTMuMDM4LS4wNTUuMDM4LS4wNTUuMDM4LS4wNTguMDM3LS4wNTguMDM3LS4wNi4wMzctLjA2LjAzNi0uMDYyLjAzNi0uMDY0LjAzNi0uMDY0LjAzNi0uMDY2LjAzNS0uMDY3LjAzNS0uMDY4LjAzNS0uMDY5LjAzNS0uMDcuMDM0LS4wNzEuMDM0LS4wNzMuMDMzLS4wNzQuMDMzLS4xNS4wNjYtLjE1NS4wNjQtLjE2LjA2My0uMTYzLjA2MS0uMTY4LjA2LS4xNzIuMDU5LS4xNzUuMDU3LS4xOC4wNTYtLjE4My4wNTQtLjE4Ny4wNTMtLjE5MS4wNTEtLjE5NC4wNS0uMTk4LjA0OC0uMjAxLjA0Ni0uMjA1LjA0NS0uMjA4LjA0My0uMjExLjA0MS0uMjE0LjA0LS4yMTcuMDM4LS4yMi4wMzYtLjIyMy4wMzQtLjIyNS4wMzItLjIyOS4wMzEtLjIzMS4wMjgtLjIzMy4wMjctLjIzNi4wMjQtLjIzOS4wMjMtLjI0MS4wMi0uMjQyLjAxOS0uMjQ2LjAxNi0uMjQ3LjAxNS0uMjQ5LjAxMi0uMjUxLjAxLS4yNTMuMDA4LS4yNTUuMDA1LS4yNTYuMDA0LS4yNTguMDAxLS4yNTgtLjAwMS0uMjU2LS4wMDQtLjI1NS0uMDA1LS4yNTMtLjAwOC0uMjUxLS4wMS0uMjQ5LS4wMTItLjI0Ny0uMDE1LS4yNDUtLjAxNi0uMjQzLS4wMTktLjI0MS0uMDItLjIzOC0uMDIzLS4yMzYtLjAyNC0uMjM0LS4wMjctLjIzMS0uMDI4LS4yMjgtLjAzMS0uMjI2LS4wMzItLjIyMy0uMDM0LS4yMi0uMDM2LS4yMTctLjAzOC0uMjE0LS4wNC0uMjExLS4wNDEtLjIwOC0uMDQzLS4yMDQtLjA0NS0uMjAxLS4wNDYtLjE5OC0uMDQ4LS4xOTUtLjA1LS4xOS0uMDUxLS4xODctLjA1My0uMTg0LS4wNTQtLjE3OS0uMDU2LS4xNzYtLjA1Ny0uMTcyLS4wNTktLjE2Ny0uMDYtLjE2NC0uMDYxLS4xNTktLjA2My0uMTU1LS4wNjQtLjE1MS0uMDY2LS4wNzQtLjAzMy0uMDcyLS4wMzMtLjA3Mi0uMDM0LS4wNy0uMDM0LS4wNjktLjAzNS0uMDY4LS4wMzUtLjA2Ny0uMDM1LS4wNjYtLjAzNS0uMDY0LS4wMzYtLjA2My0uMDM2LS4wNjItLjAzNi0uMDYxLS4wMzYtLjA2LS4wMzctLjA1OC0uMDM3LS4wNTctLjAzNy0uMDU2LS4wMzgtLjA1NS0uMDM4LS4wNTMtLjAzOC0uMDUyLS4wMzgtLjA1MS0uMDM5LS4wNDktLjAzOS0uMDQ5LS4wMzktLjA0Ni0uMDM5LS4wNDYtLjA0LS4wNDQtLjA0LS4wNDMtLjA0LS4wNDEtLjA0LS4wNC0uMDQxLS4wMzktLjA0MS0uMDM3LS4wNDEtLjAzNi0uMDQxLS4wMzQtLjA0MS0uMDMzLS4wNDItLjAzMi0uMDQyLS4wMy0uMDQyLS4wMjktLjA0Mi0uMDI3LS4wNDItLjAyNi0uMDQzLS4wMjQtLjA0My0uMDIzLS4wNDMtLjAyMS0uMDQzLS4wMi0uMDQzLS4wMTgtLjA0NC0uMDE3LS4wNDMtLjAxNS0uMDQ0LS4wMTMtLjA0NC0uMDEyLS4wNDQtLjAxMS0uMDQ1LS4wMDktLjA0NC0uMDA3LS4wNDUtLjAwNi0uMDQ1LS4wMDQtLjA0NS0uMDAyLS4wNDUtLjAwMS0uMDQ1di0xN2wuMDAxLS4wNDUuMDAyLS4wNDUuMDA0LS4wNDUuMDA2LS4wNDUuMDA3LS4wNDUuMDA5LS4wNDQuMDExLS4wNDUuMDEyLS4wNDQuMDEzLS4wNDQuMDE1LS4wNDQuMDE3LS4wNDMuMDE4LS4wNDQuMDItLjA0My4wMjEtLjA0My4wMjMtLjA0My4wMjQtLjA0My4wMjYtLjA0My4wMjctLjA0Mi4wMjktLjA0Mi4wMy0uMDQyLjAzMi0uMDQyLjAzMy0uMDQyLjAzNC0uMDQxLjAzNi0uMDQxLjAzNy0uMDQxLjAzOS0uMDQxLjA0LS4wNDEuMDQxLS4wNC4wNDMtLjA0LjA0NC0uMDQuMDQ2LS4wNC4wNDYtLjAzOS4wNDktLjAzOS4wNDktLjAzOS4wNTEtLjAzOS4wNTItLjAzOC4wNTMtLjAzOC4wNTUtLjAzOC4wNTYtLjAzOC4wNTctLjAzNy4wNTgtLjAzNy4wNi0uMDM3LjA2MS0uMDM2LjA2Mi0uMDM2LjA2My0uMDM2LjA2NC0uMDM2LjA2Ni0uMDM1LjA2Ny0uMDM1LjA2OC0uMDM1LjA2OS0uMDM1LjA3LS4wMzQuMDcyLS4wMzQuMDcyLS4wMzMuMDc0LS4wMzMuMTUxLS4wNjYuMTU1LS4wNjQuMTU5LS4wNjMuMTY0LS4wNjEuMTY3LS4wNi4xNzItLjA1OS4xNzYtLjA1Ny4xNzktLjA1Ni4xODQtLjA1NC4xODctLjA1My4xOS0uMDUxLjE5NS0uMDUuMTk4LS4wNDguMjAxLS4wNDYuMjA0LS4wNDUuMjA4LS4wNDMuMjExLS4wNDEuMjE0LS4wNC4yMTctLjAzOC4yMi0uMDM2LjIyMy0uMDM0LjIyNi0uMDMyLjIyOC0uMDMxLjIzMS0uMDI4LjIzNC0uMDI3LjIzNi0uMDI0LjIzOC0uMDIzLjI0MS0uMDIuMjQzLS4wMTkuMjQ1LS4wMTYuMjQ3LS4wMTUuMjQ5LS4wMTIuMjUxLS4wMS4yNTMtLjAwOC4yNTUtLjAwNS4yNTYtLjAwNC4yNTgtLjAwMS4yNTguMDAxem0tOS4yNTggMjAuNDk5di4wMWwuMDAxLjAyMS4wMDMuMDIxLjAwNC4wMjIuMDA1LjAyMS4wMDYuMDIyLjAwNy4wMjIuMDA5LjAyMy4wMS4wMjIuMDExLjAyMy4wMTIuMDIzLjAxMy4wMjMuMDE1LjAyMy4wMTYuMDI0LjAxNy4wMjMuMDE4LjAyNC4wMTkuMDI0LjAyMS4wMjQuMDIyLjAyNS4wMjMuMDI0LjAyNC4wMjUuMDUyLjA0OS4wNTYuMDUuMDYxLjA1MS4wNjYuMDUxLjA3LjA1MS4wNzUuMDUxLjA3OS4wNTIuMDg0LjA1Mi4wODguMDUyLjA5Mi4wNTIuMDk3LjA1Mi4xMDIuMDUxLjEwNS4wNTIuMTEuMDUyLjExNC4wNTEuMTE5LjA1MS4xMjMuMDUxLjEyNy4wNS4xMzEuMDUuMTM1LjA1LjEzOS4wNDguMTQ0LjA0OS4xNDcuMDQ3LjE1Mi4wNDcuMTU1LjA0Ny4xNi4wNDUuMTYzLjA0NS4xNjcuMDQzLjE3MS4wNDMuMTc2LjA0MS4xNzguMDQxLjE4My4wMzkuMTg3LjAzOS4xOS4wMzcuMTk0LjAzNS4xOTcuMDM1LjIwMi4wMzMuMjA0LjAzMS4yMDkuMDMuMjEyLjAyOS4yMTYuMDI3LjIxOS4wMjUuMjIyLjAyNC4yMjYuMDIxLjIzLjAyLjIzMy4wMTguMjM2LjAxNi4yNC4wMTUuMjQzLjAxMi4yNDYuMDEuMjQ5LjAwOC4yNTMuMDA1LjI1Ni4wMDQuMjU5LjAwMS4yNi0uMDAxLjI1Ny0uMDA0LjI1NC0uMDA1LjI1LS4wMDguMjQ3LS4wMTEuMjQ0LS4wMTIuMjQxLS4wMTQuMjM3LS4wMTYuMjMzLS4wMTguMjMxLS4wMjEuMjI2LS4wMjEuMjI0LS4wMjQuMjItLjAyNi4yMTYtLjAyNy4yMTItLjAyOC4yMS0uMDMxLjIwNS0uMDMxLjIwMi0uMDM0LjE5OC0uMDM0LjE5NC0uMDM2LjE5MS0uMDM3LjE4Ny0uMDM5LjE4My0uMDQuMTc5LS4wNC4xNzUtLjA0Mi4xNzItLjA0My4xNjgtLjA0NC4xNjMtLjA0NS4xNi0uMDQ2LjE1NS0uMDQ2LjE1Mi0uMDQ3LjE0OC0uMDQ4LjE0My0uMDQ5LjEzOS0uMDQ5LjEzNi0uMDUuMTMxLS4wNS4xMjYtLjA1LjEyMy0uMDUxLjExOC0uMDUyLjExNC0uMDUxLjExLS4wNTIuMTA2LS4wNTIuMTAxLS4wNTIuMDk2LS4wNTIuMDkyLS4wNTIuMDg4LS4wNTMuMDgzLS4wNTEuMDc5LS4wNTIuMDc0LS4wNTIuMDctLjA1MS4wNjUtLjA1MS4wNi0uMDUxLjA1Ni0uMDUuMDUxLS4wNS4wMjMtLjAyNC4wMjMtLjAyNS4wMjEtLjAyNC4wMi0uMDI0LjAxOS0uMDI0LjAxOC0uMDI0LjAxNy0uMDI0LjAxNS0uMDIzLjAxNC0uMDI0LjAxMy0uMDIzLjAxMi0uMDIzLjAxLS4wMjMuMDEtLjAyMi4wMDgtLjAyMi4wMDYtLjAyMi4wMDYtLjAyMi4wMDQtLjAyMi4wMDQtLjAyMS4wMDEtLjAyMS4wMDEtLjAyMXYtNC4xMjdsLS4wNzcuMDU1LS4wOC4wNTMtLjA4My4wNTQtLjA4NS4wNTMtLjA4Ny4wNTItLjA5LjA1Mi0uMDkzLjA1MS0uMDk1LjA1LS4wOTcuMDUtLjEuMDQ5LS4xMDIuMDQ5LS4xMDUuMDQ4LS4xMDYuMDQ3LS4xMDkuMDQ3LS4xMTEuMDQ2LS4xMTQuMDQ1LS4xMTUuMDQ1LS4xMTguMDQ0LS4xMi4wNDMtLjEyMi4wNDItLjEyNC4wNDItLjEyNi4wNDEtLjEyOC4wNC0uMTMuMDQtLjEzMi4wMzgtLjEzNC4wMzgtLjEzNS4wMzctLjEzOC4wMzctLjEzOS4wMzUtLjE0Mi4wMzUtLjE0My4wMzQtLjE0NC4wMzMtLjE0Ny4wMzItLjE0OC4wMzEtLjE1LjAzLS4xNTEuMDMtLjE1My4wMjktLjE1NC4wMjctLjE1Ni4wMjctLjE1OC4wMjYtLjE1OS4wMjUtLjE2MS4wMjQtLjE2Mi4wMjMtLjE2My4wMjItLjE2NS4wMjEtLjE2Ni4wMi0uMTY3LjAxOS0uMTY5LjAxOC0uMTY5LjAxNy0uMTcxLjAxNi0uMTczLjAxNS0uMTczLjAxNC0uMTc1LjAxMy0uMTc1LjAxMi0uMTc3LjAxMS0uMTc4LjAxLS4xNzkuMDA4LS4xNzkuMDA4LS4xODEuMDA2LS4xODIuMDA1LS4xODIuMDA0LS4xODQuMDAzLS4xODQuMDAyaC0uMzdsLS4xODQtLjAwMi0uMTg0LS4wMDMtLjE4Mi0uMDA0LS4xODItLjAwNS0uMTgxLS4wMDYtLjE3OS0uMDA4LS4xNzktLjAwOC0uMTc4LS4wMS0uMTc2LS4wMTEtLjE3Ni0uMDEyLS4xNzUtLjAxMy0uMTczLS4wMTQtLjE3Mi0uMDE1LS4xNzEtLjAxNi0uMTctLjAxNy0uMTY5LS4wMTgtLjE2Ny0uMDE5LS4xNjYtLjAyLS4xNjUtLjAyMS0uMTYzLS4wMjItLjE2Mi0uMDIzLS4xNjEtLjAyNC0uMTU5LS4wMjUtLjE1Ny0uMDI2LS4xNTYtLjAyNy0uMTU1LS4wMjctLjE1My0uMDI5LS4xNTEtLjAzLS4xNS0uMDMtLjE0OC0uMDMxLS4xNDYtLjAzMi0uMTQ1LS4wMzMtLjE0My0uMDM0LS4xNDEtLjAzNS0uMTQtLjAzNS0uMTM3LS4wMzctLjEzNi0uMDM3LS4xMzQtLjAzOC0uMTMyLS4wMzgtLjEzLS4wNC0uMTI4LS4wNC0uMTI2LS4wNDEtLjEyNC0uMDQyLS4xMjItLjA0Mi0uMTItLjA0NC0uMTE3LS4wNDMtLjExNi0uMDQ1LS4xMTMtLjA0NS0uMTEyLS4wNDYtLjEwOS0uMDQ3LS4xMDYtLjA0Ny0uMTA1LS4wNDgtLjEwMi0uMDQ5LS4xLS4wNDktLjA5Ny0uMDUtLjA5NS0uMDUtLjA5My0uMDUyLS4wOS0uMDUxLS4wODctLjA1Mi0uMDg1LS4wNTMtLjA4My0uMDU0LS4wOC0uMDU0LS4wNzctLjA1NHY0LjEyN3ptMC01LjY1NHYuMDExbC4wMDEuMDIxLjAwMy4wMjEuMDA0LjAyMS4wMDUuMDIyLjAwNi4wMjIuMDA3LjAyMi4wMDkuMDIyLjAxLjAyMi4wMTEuMDIzLjAxMi4wMjMuMDEzLjAyMy4wMTUuMDI0LjAxNi4wMjMuMDE3LjAyNC4wMTguMDI0LjAxOS4wMjQuMDIxLjAyNC4wMjIuMDI0LjAyMy4wMjUuMDI0LjAyNC4wNTIuMDUuMDU2LjA1LjA2MS4wNS4wNjYuMDUxLjA3LjA1MS4wNzUuMDUyLjA3OS4wNTEuMDg0LjA1Mi4wODguMDUyLjA5Mi4wNTIuMDk3LjA1Mi4xMDIuMDUyLjEwNS4wNTIuMTEuMDUxLjExNC4wNTEuMTE5LjA1Mi4xMjMuMDUuMTI3LjA1MS4xMzEuMDUuMTM1LjA0OS4xMzkuMDQ5LjE0NC4wNDguMTQ3LjA0OC4xNTIuMDQ3LjE1NS4wNDYuMTYuMDQ1LjE2My4wNDUuMTY3LjA0NC4xNzEuMDQyLjE3Ni4wNDIuMTc4LjA0LjE4My4wNC4xODcuMDM4LjE5LjAzNy4xOTQuMDM2LjE5Ny4wMzQuMjAyLjAzMy4yMDQuMDMyLjIwOS4wMy4yMTIuMDI4LjIxNi4wMjcuMjE5LjAyNS4yMjIuMDI0LjIyNi4wMjIuMjMuMDIuMjMzLjAxOC4yMzYuMDE2LjI0LjAxNC4yNDMuMDEyLjI0Ni4wMS4yNDkuMDA4LjI1My4wMDYuMjU2LjAwMy4yNTkuMDAxLjI2LS4wMDEuMjU3LS4wMDMuMjU0LS4wMDYuMjUtLjAwOC4yNDctLjAxLjI0NC0uMDEyLjI0MS0uMDE1LjIzNy0uMDE2LjIzMy0uMDE4LjIzMS0uMDIuMjI2LS4wMjIuMjI0LS4wMjQuMjItLjAyNS4yMTYtLjAyNy4yMTItLjAyOS4yMS0uMDMuMjA1LS4wMzIuMjAyLS4wMzMuMTk4LS4wMzUuMTk0LS4wMzYuMTkxLS4wMzcuMTg3LS4wMzkuMTgzLS4wMzkuMTc5LS4wNDEuMTc1LS4wNDIuMTcyLS4wNDMuMTY4LS4wNDQuMTYzLS4wNDUuMTYtLjA0NS4xNTUtLjA0Ny4xNTItLjA0Ny4xNDgtLjA0OC4xNDMtLjA0OC4xMzktLjA1LjEzNi0uMDQ5LjEzMS0uMDUuMTI2LS4wNTEuMTIzLS4wNTEuMTE4LS4wNTEuMTE0LS4wNTIuMTEtLjA1Mi4xMDYtLjA1Mi4xMDEtLjA1Mi4wOTYtLjA1Mi4wOTItLjA1Mi4wODgtLjA1Mi4wODMtLjA1Mi4wNzktLjA1Mi4wNzQtLjA1MS4wNy0uMDUyLjA2NS0uMDUxLjA2LS4wNS4wNTYtLjA1MS4wNTEtLjA0OS4wMjMtLjAyNS4wMjMtLjAyNC4wMjEtLjAyNS4wMi0uMDI0LjAxOS0uMDI0LjAxOC0uMDI0LjAxNy0uMDI0LjAxNS0uMDIzLjAxNC0uMDIzLjAxMy0uMDI0LjAxMi0uMDIyLjAxLS4wMjMuMDEtLjAyMy4wMDgtLjAyMi4wMDYtLjAyMi4wMDYtLjAyMi4wMDQtLjAyMS4wMDQtLjAyMi4wMDEtLjAyMS4wMDEtLjAyMXYtNC4xMzlsLS4wNzcuMDU0LS4wOC4wNTQtLjA4My4wNTQtLjA4NS4wNTItLjA4Ny4wNTMtLjA5LjA1MS0uMDkzLjA1MS0uMDk1LjA1MS0uMDk3LjA1LS4xLjA0OS0uMTAyLjA0OS0uMTA1LjA0OC0uMTA2LjA0Ny0uMTA5LjA0Ny0uMTExLjA0Ni0uMTE0LjA0NS0uMTE1LjA0NC0uMTE4LjA0NC0uMTIuMDQ0LS4xMjIuMDQyLS4xMjQuMDQyLS4xMjYuMDQxLS4xMjguMDQtLjEzLjAzOS0uMTMyLjAzOS0uMTM0LjAzOC0uMTM1LjAzNy0uMTM4LjAzNi0uMTM5LjAzNi0uMTQyLjAzNS0uMTQzLjAzMy0uMTQ0LjAzMy0uMTQ3LjAzMy0uMTQ4LjAzMS0uMTUuMDMtLjE1MS4wMy0uMTUzLjAyOC0uMTU0LjAyOC0uMTU2LjAyNy0uMTU4LjAyNi0uMTU5LjAyNS0uMTYxLjAyNC0uMTYyLjAyMy0uMTYzLjAyMi0uMTY1LjAyMS0uMTY2LjAyLS4xNjcuMDE5LS4xNjkuMDE4LS4xNjkuMDE3LS4xNzEuMDE2LS4xNzMuMDE1LS4xNzMuMDE0LS4xNzUuMDEzLS4xNzUuMDEyLS4xNzcuMDExLS4xNzguMDA5LS4xNzkuMDA5LS4xNzkuMDA3LS4xODEuMDA3LS4xODIuMDA1LS4xODIuMDA0LS4xODQuMDAzLS4xODQuMDAyaC0uMzdsLS4xODQtLjAwMi0uMTg0LS4wMDMtLjE4Mi0uMDA0LS4xODItLjAwNS0uMTgxLS4wMDctLjE3OS0uMDA3LS4xNzktLjAwOS0uMTc4LS4wMDktLjE3Ni0uMDExLS4xNzYtLjAxMi0uMTc1LS4wMTMtLjE3My0uMDE0LS4xNzItLjAxNS0uMTcxLS4wMTYtLjE3LS4wMTctLjE2OS0uMDE4LS4xNjctLjAxOS0uMTY2LS4wMi0uMTY1LS4wMjEtLjE2My0uMDIyLS4xNjItLjAyMy0uMTYxLS4wMjQtLjE1OS0uMDI1LS4xNTctLjAyNi0uMTU2LS4wMjctLjE1NS0uMDI4LS4xNTMtLjAyOC0uMTUxLS4wMy0uMTUtLjAzLS4xNDgtLjAzMS0uMTQ2LS4wMzMtLjE0NS0uMDMzLS4xNDMtLjAzMy0uMTQxLS4wMzUtLjE0LS4wMzYtLjEzNy0uMDM2LS4xMzYtLjAzNy0uMTM0LS4wMzgtLjEzMi0uMDM5LS4xMy0uMDM5LS4xMjgtLjA0LS4xMjYtLjA0MS0uMTI0LS4wNDItLjEyMi0uMDQzLS4xMi0uMDQzLS4xMTctLjA0NC0uMTE2LS4wNDQtLjExMy0uMDQ2LS4xMTItLjA0Ni0uMTA5LS4wNDYtLjEwNi0uMDQ3LS4xMDUtLjA0OC0uMTAyLS4wNDktLjEtLjA0OS0uMDk3LS4wNS0uMDk1LS4wNTEtLjA5My0uMDUxLS4wOS0uMDUxLS4wODctLjA1My0uMDg1LS4wNTItLjA4My0uMDU0LS4wOC0uMDU0LS4wNzctLjA1NHY0LjEzOXptMC01LjY2NnYuMDExbC4wMDEuMDIuMDAzLjAyMi4wMDQuMDIxLjAwNS4wMjIuMDA2LjAyMS4wMDcuMDIyLjAwOS4wMjMuMDEuMDIyLjAxMS4wMjMuMDEyLjAyMy4wMTMuMDIzLjAxNS4wMjMuMDE2LjAyNC4wMTcuMDI0LjAxOC4wMjMuMDE5LjAyNC4wMjEuMDI1LjAyMi4wMjQuMDIzLjAyNC4wMjQuMDI1LjA1Mi4wNS4wNTYuMDUuMDYxLjA1LjA2Ni4wNTEuMDcuMDUxLjA3NS4wNTIuMDc5LjA1MS4wODQuMDUyLjA4OC4wNTIuMDkyLjA1Mi4wOTcuMDUyLjEwMi4wNTIuMTA1LjA1MS4xMS4wNTIuMTE0LjA1MS4xMTkuMDUxLjEyMy4wNTEuMTI3LjA1LjEzMS4wNS4xMzUuMDUuMTM5LjA0OS4xNDQuMDQ4LjE0Ny4wNDguMTUyLjA0Ny4xNTUuMDQ2LjE2LjA0NS4xNjMuMDQ1LjE2Ny4wNDMuMTcxLjA0My4xNzYuMDQyLjE3OC4wNC4xODMuMDQuMTg3LjAzOC4xOS4wMzcuMTk0LjAzNi4xOTcuMDM0LjIwMi4wMzMuMjA0LjAzMi4yMDkuMDMuMjEyLjAyOC4yMTYuMDI3LjIxOS4wMjUuMjIyLjAyNC4yMjYuMDIxLjIzLjAyLjIzMy4wMTguMjM2LjAxNy4yNC4wMTQuMjQzLjAxMi4yNDYuMDEuMjQ5LjAwOC4yNTMuMDA2LjI1Ni4wMDMuMjU5LjAwMS4yNi0uMDAxLjI1Ny0uMDAzLjI1NC0uMDA2LjI1LS4wMDguMjQ3LS4wMS4yNDQtLjAxMy4yNDEtLjAxNC4yMzctLjAxNi4yMzMtLjAxOC4yMzEtLjAyLjIyNi0uMDIyLjIyNC0uMDI0LjIyLS4wMjUuMjE2LS4wMjcuMjEyLS4wMjkuMjEtLjAzLjIwNS0uMDMyLjIwMi0uMDMzLjE5OC0uMDM1LjE5NC0uMDM2LjE5MS0uMDM3LjE4Ny0uMDM5LjE4My0uMDM5LjE3OS0uMDQxLjE3NS0uMDQyLjE3Mi0uMDQzLjE2OC0uMDQ0LjE2My0uMDQ1LjE2LS4wNDUuMTU1LS4wNDcuMTUyLS4wNDcuMTQ4LS4wNDguMTQzLS4wNDkuMTM5LS4wNDkuMTM2LS4wNDkuMTMxLS4wNTEuMTI2LS4wNS4xMjMtLjA1MS4xMTgtLjA1Mi4xMTQtLjA1MS4xMS0uMDUyLjEwNi0uMDUyLjEwMS0uMDUyLjA5Ni0uMDUyLjA5Mi0uMDUyLjA4OC0uMDUyLjA4My0uMDUyLjA3OS0uMDUyLjA3NC0uMDUyLjA3LS4wNTEuMDY1LS4wNTEuMDYtLjA1MS4wNTYtLjA1LjA1MS0uMDQ5LjAyMy0uMDI1LjAyMy0uMDI1LjAyMS0uMDI0LjAyLS4wMjQuMDE5LS4wMjQuMDE4LS4wMjQuMDE3LS4wMjQuMDE1LS4wMjMuMDE0LS4wMjQuMDEzLS4wMjMuMDEyLS4wMjMuMDEtLjAyMi4wMS0uMDIzLjAwOC0uMDIyLjAwNi0uMDIyLjAwNi0uMDIyLjAwNC0uMDIyLjAwNC0uMDIxLjAwMS0uMDIxLjAwMS0uMDIxdi00LjE1M2wtLjA3Ny4wNTQtLjA4LjA1NC0uMDgzLjA1My0uMDg1LjA1My0uMDg3LjA1My0uMDkuMDUxLS4wOTMuMDUxLS4wOTUuMDUxLS4wOTcuMDUtLjEuMDQ5LS4xMDIuMDQ4LS4xMDUuMDQ4LS4xMDYuMDQ4LS4xMDkuMDQ2LS4xMTEuMDQ2LS4xMTQuMDQ2LS4xMTUuMDQ0LS4xMTguMDQ0LS4xMi4wNDMtLjEyMi4wNDMtLjEyNC4wNDItLjEyNi4wNDEtLjEyOC4wNC0uMTMuMDM5LS4xMzIuMDM5LS4xMzQuMDM4LS4xMzUuMDM3LS4xMzguMDM2LS4xMzkuMDM2LS4xNDIuMDM0LS4xNDMuMDM0LS4xNDQuMDMzLS4xNDcuMDMyLS4xNDguMDMyLS4xNS4wMy0uMTUxLjAzLS4xNTMuMDI4LS4xNTQuMDI4LS4xNTYuMDI3LS4xNTguMDI2LS4xNTkuMDI0LS4xNjEuMDI0LS4xNjIuMDIzLS4xNjMuMDIzLS4xNjUuMDIxLS4xNjYuMDItLjE2Ny4wMTktLjE2OS4wMTgtLjE2OS4wMTctLjE3MS4wMTYtLjE3My4wMTUtLjE3My4wMTQtLjE3NS4wMTMtLjE3NS4wMTItLjE3Ny4wMS0uMTc4LjAxLS4xNzkuMDA5LS4xNzkuMDA3LS4xODEuMDA2LS4xODIuMDA2LS4xODIuMDA0LS4xODQuMDAzLS4xODQuMDAxLS4xODUuMDAxLS4xODUtLjAwMS0uMTg0LS4wMDEtLjE4NC0uMDAzLS4xODItLjAwNC0uMTgyLS4wMDYtLjE4MS0uMDA2LS4xNzktLjAwNy0uMTc5LS4wMDktLjE3OC0uMDEtLjE3Ni0uMDEtLjE3Ni0uMDEyLS4xNzUtLjAxMy0uMTczLS4wMTQtLjE3Mi0uMDE1LS4xNzEtLjAxNi0uMTctLjAxNy0uMTY5LS4wMTgtLjE2Ny0uMDE5LS4xNjYtLjAyLS4xNjUtLjAyMS0uMTYzLS4wMjMtLjE2Mi0uMDIzLS4xNjEtLjAyNC0uMTU5LS4wMjQtLjE1Ny0uMDI2LS4xNTYtLjAyNy0uMTU1LS4wMjgtLjE1My0uMDI4LS4xNTEtLjAzLS4xNS0uMDMtLjE0OC0uMDMyLS4xNDYtLjAzMi0uMTQ1LS4wMzMtLjE0My0uMDM0LS4xNDEtLjAzNC0uMTQtLjAzNi0uMTM3LS4wMzYtLjEzNi0uMDM3LS4xMzQtLjAzOC0uMTMyLS4wMzktLjEzLS4wMzktLjEyOC0uMDQxLS4xMjYtLjA0MS0uMTI0LS4wNDEtLjEyMi0uMDQzLS4xMi0uMDQzLS4xMTctLjA0NC0uMTE2LS4wNDQtLjExMy0uMDQ2LS4xMTItLjA0Ni0uMTA5LS4wNDYtLjEwNi0uMDQ4LS4xMDUtLjA0OC0uMTAyLS4wNDgtLjEtLjA1LS4wOTctLjA0OS0uMDk1LS4wNTEtLjA5My0uMDUxLS4wOS0uMDUyLS4wODctLjA1Mi0uMDg1LS4wNTMtLjA4My0uMDUzLS4wOC0uMDU0LS4wNzctLjA1NHY0LjE1M3ptOC43NC04LjE3OWwtLjI1Ny4wMDQtLjI1NC4wMDUtLjI1LjAwOC0uMjQ3LjAxMS0uMjQ0LjAxMi0uMjQxLjAxNC0uMjM3LjAxNi0uMjMzLjAxOC0uMjMxLjAyMS0uMjI2LjAyMi0uMjI0LjAyMy0uMjIuMDI2LS4yMTYuMDI3LS4yMTIuMDI4LS4yMS4wMzEtLjIwNS4wMzItLjIwMi4wMzMtLjE5OC4wMzQtLjE5NC4wMzYtLjE5MS4wMzgtLjE4Ny4wMzgtLjE4My4wNC0uMTc5LjA0MS0uMTc1LjA0Mi0uMTcyLjA0My0uMTY4LjA0My0uMTYzLjA0NS0uMTYuMDQ2LS4xNTUuMDQ2LS4xNTIuMDQ4LS4xNDguMDQ4LS4xNDMuMDQ4LS4xMzkuMDQ5LS4xMzYuMDUtLjEzMS4wNS0uMTI2LjA1MS0uMTIzLjA1MS0uMTE4LjA1MS0uMTE0LjA1Mi0uMTEuMDUyLS4xMDYuMDUyLS4xMDEuMDUyLS4wOTYuMDUyLS4wOTIuMDUyLS4wODguMDUyLS4wODMuMDUyLS4wNzkuMDUyLS4wNzQuMDUxLS4wNy4wNTItLjA2NS4wNTEtLjA2LjA1LS4wNTYuMDUtLjA1MS4wNS0uMDIzLjAyNS0uMDIzLjAyNC0uMDIxLjAyNC0uMDIuMDI1LS4wMTkuMDI0LS4wMTguMDI0LS4wMTcuMDIzLS4wMTUuMDI0LS4wMTQuMDIzLS4wMTMuMDIzLS4wMTIuMDIzLS4wMS4wMjMtLjAxLjAyMi0uMDA4LjAyMi0uMDA2LjAyMy0uMDA2LjAyMS0uMDA0LjAyMi0uMDA0LjAyMS0uMDAxLjAyMS0uMDAxLjAyMS4wMDEuMDIxLjAwMS4wMjEuMDA0LjAyMS4wMDQuMDIyLjAwNi4wMjEuMDA2LjAyMy4wMDguMDIyLjAxLjAyMi4wMS4wMjMuMDEyLjAyMy4wMTMuMDIzLjAxNC4wMjMuMDE1LjAyNC4wMTcuMDIzLjAxOC4wMjQuMDE5LjAyNC4wMi4wMjUuMDIxLjAyNC4wMjMuMDI0LjAyMy4wMjUuMDUxLjA1LjA1Ni4wNS4wNi4wNS4wNjUuMDUxLjA3LjA1Mi4wNzQuMDUxLjA3OS4wNTIuMDgzLjA1Mi4wODguMDUyLjA5Mi4wNTIuMDk2LjA1Mi4xMDEuMDUyLjEwNi4wNTIuMTEuMDUyLjExNC4wNTIuMTE4LjA1MS4xMjMuMDUxLjEyNi4wNTEuMTMxLjA1LjEzNi4wNS4xMzkuMDQ5LjE0My4wNDguMTQ4LjA0OC4xNTIuMDQ4LjE1NS4wNDYuMTYuMDQ2LjE2My4wNDUuMTY4LjA0My4xNzIuMDQzLjE3NS4wNDIuMTc5LjA0MS4xODMuMDQuMTg3LjAzOC4xOTEuMDM4LjE5NC4wMzYuMTk4LjAzNC4yMDIuMDMzLjIwNS4wMzIuMjEuMDMxLjIxMi4wMjguMjE2LjAyNy4yMi4wMjYuMjI0LjAyMy4yMjYuMDIyLjIzMS4wMjEuMjMzLjAxOC4yMzcuMDE2LjI0MS4wMTQuMjQ0LjAxMi4yNDcuMDExLjI1LjAwOC4yNTQuMDA1LjI1Ny4wMDQuMjYuMDAxLjI2LS4wMDEuMjU3LS4wMDQuMjU0LS4wMDUuMjUtLjAwOC4yNDctLjAxMS4yNDQtLjAxMi4yNDEtLjAxNC4yMzctLjAxNi4yMzMtLjAxOC4yMzEtLjAyMS4yMjYtLjAyMi4yMjQtLjAyMy4yMi0uMDI2LjIxNi0uMDI3LjIxMi0uMDI4LjIxLS4wMzEuMjA1LS4wMzIuMjAyLS4wMzMuMTk4LS4wMzQuMTk0LS4wMzYuMTkxLS4wMzguMTg3LS4wMzguMTgzLS4wNC4xNzktLjA0MS4xNzUtLjA0Mi4xNzItLjA0My4xNjgtLjA0My4xNjMtLjA0NS4xNi0uMDQ2LjE1NS0uMDQ2LjE1Mi0uMDQ4LjE0OC0uMDQ4LjE0My0uMDQ4LjEzOS0uMDQ5LjEzNi0uMDUuMTMxLS4wNS4xMjYtLjA1MS4xMjMtLjA1MS4xMTgtLjA1MS4xMTQtLjA1Mi4xMS0uMDUyLjEwNi0uMDUyLjEwMS0uMDUyLjA5Ni0uMDUyLjA5Mi0uMDUyLjA4OC0uMDUyLjA4My0uMDUyLjA3OS0uMDUyLjA3NC0uMDUxLjA3LS4wNTIuMDY1LS4wNTEuMDYtLjA1LjA1Ni0uMDUuMDUxLS4wNS4wMjMtLjAyNS4wMjMtLjAyNC4wMjEtLjAyNC4wMi0uMDI1LjAxOS0uMDI0LjAxOC0uMDI0LjAxNy0uMDIzLjAxNS0uMDI0LjAxNC0uMDIzLjAxMy0uMDIzLjAxMi0uMDIzLjAxLS4wMjMuMDEtLjAyMi4wMDgtLjAyMi4wMDYtLjAyMy4wMDYtLjAyMS4wMDQtLjAyMi4wMDQtLjAyMS4wMDEtLjAyMS4wMDEtLjAyMS0uMDAxLS4wMjEtLjAwMS0uMDIxLS4wMDQtLjAyMS0uMDA0LS4wMjItLjAwNi0uMDIxLS4wMDYtLjAyMy0uMDA4LS4wMjItLjAxLS4wMjItLjAxLS4wMjMtLjAxMi0uMDIzLS4wMTMtLjAyMy0uMDE0LS4wMjMtLjAxNS0uMDI0LS4wMTctLjAyMy0uMDE4LS4wMjQtLjAxOS0uMDI0LS4wMi0uMDI1LS4wMjEtLjAyNC0uMDIzLS4wMjQtLjAyMy0uMDI1LS4wNTEtLjA1LS4wNTYtLjA1LS4wNi0uMDUtLjA2NS0uMDUxLS4wNy0uMDUyLS4wNzQtLjA1MS0uMDc5LS4wNTItLjA4My0uMDUyLS4wODgtLjA1Mi0uMDkyLS4wNTItLjA5Ni0uMDUyLS4xMDEtLjA1Mi0uMTA2LS4wNTItLjExLS4wNTItLjExNC0uMDUyLS4xMTgtLjA1MS0uMTIzLS4wNTEtLjEyNi0uMDUxLS4xMzEtLjA1LS4xMzYtLjA1LS4xMzktLjA0OS0uMTQzLS4wNDgtLjE0OC0uMDQ4LS4xNTItLjA0OC0uMTU1LS4wNDYtLjE2LS4wNDYtLjE2My0uMDQ1LS4xNjgtLjA0My0uMTcyLS4wNDMtLjE3NS0uMDQyLS4xNzktLjA0MS0uMTgzLS4wNC0uMTg3LS4wMzgtLjE5MS0uMDM4LS4xOTQtLjAzNi0uMTk4LS4wMzQtLjIwMi0uMDMzLS4yMDUtLjAzMi0uMjEtLjAzMS0uMjEyLS4wMjgtLjIxNi0uMDI3LS4yMi0uMDI2LS4yMjQtLjAyMy0uMjI2LS4wMjItLjIzMS0uMDIxLS4yMzMtLjAxOC0uMjM3LS4wMTYtLjI0MS0uMDE0LS4yNDQtLjAxMi0uMjQ3LS4wMTEtLjI1LS4wMDgtLjI1NC0uMDA1LS4yNTctLjAwNC0uMjYtLjAwMS0uMjYuMDAxeiIgdHJhbnNmb3JtPSJzY2FsZSguNSkiPjwvcGF0aD48L3N5bWJvbD48L2RlZnM+PGRlZnM+PHN5bWJvbCBoZWlnaHQ9IjI0IiB3aWR0aD0iMjQiIGlkPSJjbG9jayI+PHBhdGggZD0iTTEyIDJjNS41MTQgMCAxMCA0LjQ4NiAxMCAxMHMtNC40ODYgMTAtMTAgMTAtMTAtNC40ODYtMTAtMTAgNC40ODYtMTAgMTAtMTB6bTAtMmMtNi42MjcgMC0xMiA1LjM3My0xMiAxMnM1LjM3MyAxMiAxMiAxMiAxMi01LjM3MyAxMi0xMi01LjM3My0xMi0xMi0xMnptNS44NDggMTIuNDU5Yy4yMDIuMDM4LjIwMi4zMzMuMDAxLjM3Mi0xLjkwNy4zNjEtNi4wNDUgMS4xMTEtNi41NDcgMS4xMTEtLjcxOSAwLTEuMzAxLS41ODItMS4zMDEtMS4zMDEgMC0uNTEyLjc3LTUuNDQ3IDEuMTI1LTcuNDQ1LjAzNC0uMTkyLjMxMi0uMTgxLjM0My4wMTRsLjk4NSA2LjIzOCA1LjM5NCAxLjAxMXoiIHRyYW5zZm9ybT0ic2NhbGUoLjUpIj48L3BhdGg+PC9zeW1ib2w+PC9kZWZzPjxkZWZzPjxtYXJrZXIgb3JpZW50PSJhdXRvLXN0YXJ0LXJldmVyc2UiIG1hcmtlckhlaWdodD0iMTIiIG1hcmtlcldpZHRoPSIxMiIgbWFya2VyVW5pdHM9InVzZXJTcGFjZU9uVXNlIiByZWZZPSI1IiByZWZYPSI3LjkiIGlkPSJhcnJvd2hlYWQiPjxwYXRoIGQ9Ik0gLTEgMCBMIDEwIDUgTCAwIDEwIHoiPjwvcGF0aD48L21hcmtlcj48L2RlZnM+PGRlZnM+PG1hcmtlciByZWZZPSI0LjUiIHJlZlg9IjQiIG9yaWVudD0iYXV0byIgbWFya2VySGVpZ2h0PSI4IiBtYXJrZXJXaWR0aD0iMTUiIGlkPSJjcm9zc2hlYWQiPjxwYXRoIHN0eWxlPSJzdHJva2UtZGFzaGFycmF5OiAwLCAwOyIgZD0iTSAxLDIgTCA2LDcgTSA2LDIgTCAxLDciIHN0cm9rZS13aWR0aD0iMXB0IiBzdHJva2U9IiMwMDAwMDAiIGZpbGw9Im5vbmUiPjwvcGF0aD48L21hcmtlcj48L2RlZnM+PGRlZnM+PG1hcmtlciBvcmllbnQ9ImF1dG8iIG1hcmtlckhlaWdodD0iMjgiIG1hcmtlcldpZHRoPSIyMCIgcmVmWT0iNyIgcmVmWD0iMTUuNSIgaWQ9ImZpbGxlZC1oZWFkIj48cGF0aCBkPSJNIDE4LDcgTDksMTMgTDE0LDcgTDksMSBaIj48L3BhdGg+PC9tYXJrZXI+PC9kZWZzPjxkZWZzPjxtYXJrZXIgb3JpZW50PSJhdXRvIiBtYXJrZXJIZWlnaHQ9IjQwIiBtYXJrZXJXaWR0aD0iNjAiIHJlZlk9IjE1IiByZWZYPSIxNSIgaWQ9InNlcXVlbmNlbnVtYmVyIj48Y2lyY2xlIHI9IjYiIGN5PSIxNSIgY3g9IjE1Ij48L2NpcmNsZT48L21hcmtlcj48L2RlZnM+PGc+PHJlY3QgY2xhc3M9Im5vdGUiIGhlaWdodD0iMzkiIHdpZHRoPSI5MTcuNSIgc3Ryb2tlPSIjNjY2IiBmaWxsPSIjRURGMkFFIiB5PSI5NSIgeD0iNTAiPjwvcmVjdD48dGV4dCBzdHlsZT0iZm9udC1zaXplOiAxNnB4OyBmb250LXdlaWdodDogNDAwOyIgZHk9IjFlbSIgY2xhc3M9Im5vdGVUZXh0IiBhbGlnbm1lbnQtYmFzZWxpbmU9Im1pZGRsZSIgZG9taW5hbnQtYmFzZWxpbmU9Im1pZGRsZSIgdGV4dC1hbmNob3I9Im1pZGRsZSIgeT0iMTAwIiB4PSI1MDkiPjx0c3BhbiB4PSI1MDkiPlN0YXJ0IFByZS10ZXN0aW5nPC90c3Bhbj48L3RleHQ+PC9nPjxnPjxyZWN0IGNsYXNzPSJub3RlIiBoZWlnaHQ9IjM5IiB3aWR0aD0iNjQ1IiBzdHJva2U9IiM2NjYiIGZpbGw9IiNFREYyQUUiIHk9Ijg3MCIgeD0iNjIwIj48L3JlY3Q+PHRleHQgc3R5bGU9ImZvbnQtc2l6ZTogMTZweDsgZm9udC13ZWlnaHQ6IDQwMDsiIGR5PSIxZW0iIGNsYXNzPSJub3RlVGV4dCIgYWxpZ25tZW50LWJhc2VsaW5lPSJtaWRkbGUiIGRvbWluYW50LWJhc2VsaW5lPSJtaWRkbGUiIHRleHQtYW5jaG9yPSJtaWRkbGUiIHk9Ijg3NSIgeD0iOTQzIj48dHNwYW4geD0iOTQzIj5QaXBlbGluZSBqb2JzOiBjZXJ0aWZpY2F0aW9uIHByb2plY3QgY3JlYXRlLCB1cGRhdGUsIGF0dGFjaCBQTCwgQ1ZFIHNjYW4sIHN1Ym1pdCwgcHVibGlzaDwvdHNwYW4+PC90ZXh0PjwvZz48Zz48cmVjdCBjbGFzcz0ibm90ZSIgaGVpZ2h0PSIzOSIgd2lkdGg9IjQ2NCIgc3Ryb2tlPSIjNjY2IiBmaWxsPSIjRURGMkFFIiB5PSIxNTg5IiB4PSI3MTAuNSI+PC9yZWN0Pjx0ZXh0IHN0eWxlPSJmb250LXNpemU6IDE2cHg7IGZvbnQtd2VpZ2h0OiA0MDA7IiBkeT0iMWVtIiBjbGFzcz0ibm90ZVRleHQiIGFsaWdubWVudC1iYXNlbGluZT0ibWlkZGxlIiBkb21pbmFudC1iYXNlbGluZT0ibWlkZGxlIiB0ZXh0LWFuY2hvcj0ibWlkZGxlIiB5PSIxNTk0IiB4PSI5NDMiPjx0c3BhbiB4PSI5NDMiPlBpcGVsaW5lIGpvYnM6IGNyZWF0ZSwgdXBkYXRlLCBhdHRhY2ggUEwsIGRlcGxveSwgaGVsbWNoYXJ0IFBSPC90c3Bhbj48L3RleHQ+PC9nPjxnPjxyZWN0IGNsYXNzPSJub3RlIiBoZWlnaHQ9IjM5IiB3aWR0aD0iNTU3IiBzdHJva2U9IiM2NjYiIGZpbGw9IiNFREYyQUUiIHk9IjIyNjQiIHg9IjY2NCI+PC9yZWN0Pjx0ZXh0IHN0eWxlPSJmb250LXNpemU6IDE2cHg7IGZvbnQtd2VpZ2h0OiA0MDA7IiBkeT0iMWVtIiBjbGFzcz0ibm90ZVRleHQiIGFsaWdubWVudC1iYXNlbGluZT0ibWlkZGxlIiBkb21pbmFudC1iYXNlbGluZT0ibWlkZGxlIiB0ZXh0LWFuY2hvcj0ibWlkZGxlIiB5PSIyMjY5IiB4PSI5NDMiPjx0c3BhbiB4PSI5NDMiPlBpcGVsaW5lIGpvYnM6IE9wZW5zaGlmdC1jbmYgcHJvamVjdCBjcmVhdGUsIGF0dGFjaCBQTCwgY3JlYXRlIHN1cHBvcnQgY2FzZTwvdHNwYW4+PC90ZXh0PjwvZz48dGV4dCBzdHlsZT0iZm9udC1zaXplOiAxNnB4OyBmb250LXdlaWdodDogNDAwOyIgZHk9IjFlbSIgY2xhc3M9Im1lc3NhZ2VUZXh0IiBhbGlnbm1lbnQtYmFzZWxpbmU9Im1pZGRsZSIgZG9taW5hbnQtYmFzZWxpbmU9Im1pZGRsZSIgdGV4dC1hbmNob3I9Im1pZGRsZSIgeT0iMTQ5IiB4PSIyMjEiPlN0YXJ0IHByZWZsaWdodCBzY2FuPC90ZXh0PjxsaW5lIHN0eWxlPSJmaWxsOiBub25lOyIgbWFya2VyLXN0YXJ0PSJ1cmwoI3NlcXVlbmNlbnVtYmVyKSIgbWFya2VyLWVuZD0idXJsKCNhcnJvd2hlYWQpIiBzdHJva2U9Im5vbmUiIHN0cm9rZS13aWR0aD0iMiIgY2xhc3M9Im1lc3NhZ2VMaW5lMCIgeTI9IjE4MCIgeDI9IjM2NiIgeTE9IjE4MCIgeDE9Ijc2Ij48L2xpbmU+PHRleHQgY2xhc3M9InNlcXVlbmNlTnVtYmVyIiB0ZXh0LWFuY2hvcj0ibWlkZGxlIiBmb250LXNpemU9IjEycHgiIGZvbnQtZmFtaWx5PSJzYW5zLXNlcmlmIiB5PSIxODQiIHg9Ijc2Ij4xPC90ZXh0Pjx0ZXh0IHN0eWxlPSJmb250LXNpemU6IDE2cHg7IGZvbnQtd2VpZ2h0OiA0MDA7IiBkeT0iMWVtIiBjbGFzcz0ibWVzc2FnZVRleHQiIGFsaWdubWVudC1iYXNlbGluZT0ibWlkZGxlIiBkb21pbmFudC1iYXNlbGluZT0ibWlkZGxlIiB0ZXh0LWFuY2hvcj0ibWlkZGxlIiB5PSIxOTUiIHg9IjM3MSI+Q2hlY2sgYWxsIHRlc3QgY2FzZXM8L3RleHQ+PHBhdGggc3R5bGU9ImZpbGw6IG5vbmU7IiBtYXJrZXItc3RhcnQ9InVybCgjc2VxdWVuY2VudW1iZXIpIiBtYXJrZXItZW5kPSJ1cmwoI2Fycm93aGVhZCkiIHN0cm9rZT0ibm9uZSIgc3Ryb2tlLXdpZHRoPSIyIiBjbGFzcz0ibWVzc2FnZUxpbmUwIiBkPSJNIDM3MSwyMjYgQyA0MzEsMjE2IDQzMSwyNTYgMzcxLDI0NiI+PC9wYXRoPjx0ZXh0IGNsYXNzPSJzZXF1ZW5jZU51bWJlciIgdGV4dC1hbmNob3I9Im1pZGRsZSIgZm9udC1zaXplPSIxMnB4IiBmb250LWZhbWlseT0ic2Fucy1zZXJpZiIgeT0iMjMwIiB4PSIzNzEiPjI8L3RleHQ+PHRleHQgc3R5bGU9ImZvbnQtc2l6ZTogMTZweDsgZm9udC13ZWlnaHQ6IDQwMDsiIGR5PSIxZW0iIGNsYXNzPSJtZXNzYWdlVGV4dCIgYWxpZ25tZW50LWJhc2VsaW5lPSJtaWRkbGUiIGRvbWluYW50LWJhc2VsaW5lPSJtaWRkbGUiIHRleHQtYW5jaG9yPSJtaWRkbGUiIHk9IjI3MSIgeD0iMjI0Ij5BbGwgY29udGFpbmVyIHRlc3QgY2FzZXMgcGFzc2VkPC90ZXh0PjxsaW5lIHN0eWxlPSJmaWxsOiBub25lOyIgbWFya2VyLXN0YXJ0PSJ1cmwoI3NlcXVlbmNlbnVtYmVyKSIgbWFya2VyLWVuZD0idXJsKCNhcnJvd2hlYWQpIiBzdHJva2U9Im5vbmUiIHN0cm9rZS13aWR0aD0iMiIgY2xhc3M9Im1lc3NhZ2VMaW5lMCIgeTI9IjMwMiIgeDI9Ijc5IiB5MT0iMzAyIiB4MT0iMzY5Ij48L2xpbmU+PHRleHQgY2xhc3M9InNlcXVlbmNlTnVtYmVyIiB0ZXh0LWFuY2hvcj0ibWlkZGxlIiBmb250LXNpemU9IjEycHgiIGZvbnQtZmFtaWx5PSJzYW5zLXNlcmlmIiB5PSIzMDYiIHg9IjM2OSI+MzwvdGV4dD48dGV4dCBzdHlsZT0iZm9udC1zaXplOiAxNnB4OyBmb250LXdlaWdodDogNDAwOyIgZHk9IjFlbSIgY2xhc3M9Im1lc3NhZ2VUZXh0IiBhbGlnbm1lbnQtYmFzZWxpbmU9Im1pZGRsZSIgZG9taW5hbnQtYmFzZWxpbmU9Im1pZGRsZSIgdGV4dC1hbmNob3I9Im1pZGRsZSIgeT0iMzE3IiB4PSIzMjEiPlJ1biBjaGFydC12ZXJpZmllcjwvdGV4dD48bGluZSBzdHlsZT0iZmlsbDogbm9uZTsiIG1hcmtlci1zdGFydD0idXJsKCNzZXF1ZW5jZW51bWJlcikiIG1hcmtlci1lbmQ9InVybCgjYXJyb3doZWFkKSIgc3Ryb2tlPSJub25lIiBzdHJva2Utd2lkdGg9IjIiIGNsYXNzPSJtZXNzYWdlTGluZTAiIHkyPSIzNDgiIHgyPSI1NjYiIHkxPSIzNDgiIHgxPSI3NiI+PC9saW5lPjx0ZXh0IGNsYXNzPSJzZXF1ZW5jZU51bWJlciIgdGV4dC1hbmNob3I9Im1pZGRsZSIgZm9udC1zaXplPSIxMnB4IiBmb250LWZhbWlseT0ic2Fucy1zZXJpZiIgeT0iMzUyIiB4PSI3NiI+NDwvdGV4dD48dGV4dCBzdHlsZT0iZm9udC1zaXplOiAxNnB4OyBmb250LXdlaWdodDogNDAwOyIgZHk9IjFlbSIgY2xhc3M9Im1lc3NhZ2VUZXh0IiBhbGlnbm1lbnQtYmFzZWxpbmU9Im1pZGRsZSIgZG9taW5hbnQtYmFzZWxpbmU9Im1pZGRsZSIgdGV4dC1hbmNob3I9Im1pZGRsZSIgeT0iMzYzIiB4PSI1NzEiPlZlcmlmeSB0ZXN0IGNhc2VzPC90ZXh0PjxwYXRoIHN0eWxlPSJmaWxsOiBub25lOyIgbWFya2VyLXN0YXJ0PSJ1cmwoI3NlcXVlbmNlbnVtYmVyKSIgbWFya2VyLWVuZD0idXJsKCNhcnJvd2hlYWQpIiBzdHJva2U9Im5vbmUiIHN0cm9rZS13aWR0aD0iMiIgY2xhc3M9Im1lc3NhZ2VMaW5lMCIgZD0iTSA1NzEsMzk0IEMgNjMxLDM4NCA2MzEsNDI0IDU3MSw0MTQiPjwvcGF0aD48dGV4dCBjbGFzcz0ic2VxdWVuY2VOdW1iZXIiIHRleHQtYW5jaG9yPSJtaWRkbGUiIGZvbnQtc2l6ZT0iMTJweCIgZm9udC1mYW1pbHk9InNhbnMtc2VyaWYiIHk9IjM5OCIgeD0iNTcxIj41PC90ZXh0Pjx0ZXh0IHN0eWxlPSJmb250LXNpemU6IDE2cHg7IGZvbnQtd2VpZ2h0OiA0MDA7IiBkeT0iMWVtIiBjbGFzcz0ibWVzc2FnZVRleHQiIGFsaWdubWVudC1iYXNlbGluZT0ibWlkZGxlIiBkb21pbmFudC1iYXNlbGluZT0ibWlkZGxlIiB0ZXh0LWFuY2hvcj0ibWlkZGxlIiB5PSI0MzkiIHg9IjMyNCI+QWxsIEhlbG0gY2hhcnQgVGVzdCBjYXNlcyBwYXNzZWQ8L3RleHQ+PGxpbmUgc3R5bGU9ImZpbGw6IG5vbmU7IiBtYXJrZXItc3RhcnQ9InVybCgjc2VxdWVuY2VudW1iZXIpIiBtYXJrZXItZW5kPSJ1cmwoI2Fycm93aGVhZCkiIHN0cm9rZT0ibm9uZSIgc3Ryb2tlLXdpZHRoPSIyIiBjbGFzcz0ibWVzc2FnZUxpbmUwIiB5Mj0iNDcwIiB4Mj0iNzkiIHkxPSI0NzAiIHgxPSI1NjkiPjwvbGluZT48dGV4dCBjbGFzcz0ic2VxdWVuY2VOdW1iZXIiIHRleHQtYW5jaG9yPSJtaWRkbGUiIGZvbnQtc2l6ZT0iMTJweCIgZm9udC1mYW1pbHk9InNhbnMtc2VyaWYiIHk9IjQ3NCIgeD0iNTY5Ij42PC90ZXh0Pjx0ZXh0IHN0eWxlPSJmb250LXNpemU6IDE2cHg7IGZvbnQtd2VpZ2h0OiA0MDA7IiBkeT0iMWVtIiBjbGFzcz0ibWVzc2FnZVRleHQiIGFsaWdubWVudC1iYXNlbGluZT0ibWlkZGxlIiBkb21pbmFudC1iYXNlbGluZT0ibWlkZGxlIiB0ZXh0LWFuY2hvcj0ibWlkZGxlIiB5PSI0ODUiIHg9IjEyODUiPlJ1biBDTkYgY2VydGlmaWNhdGlvbiBzdWl0ZTwvdGV4dD48bGluZSBzdHlsZT0iZmlsbDogbm9uZTsiIG1hcmtlci1zdGFydD0idXJsKCNzZXF1ZW5jZW51bWJlcikiIG1hcmtlci1lbmQ9InVybCgjYXJyb3doZWFkKSIgc3Ryb2tlPSJub25lIiBzdHJva2Utd2lkdGg9IjIiIGNsYXNzPSJtZXNzYWdlTGluZTAiIHkyPSI1MTYiIHgyPSIyNDkzIiB5MT0iNTE2IiB4MT0iNzYiPjwvbGluZT48dGV4dCBjbGFzcz0ic2VxdWVuY2VOdW1iZXIiIHRleHQtYW5jaG9yPSJtaWRkbGUiIGZvbnQtc2l6ZT0iMTJweCIgZm9udC1mYW1pbHk9InNhbnMtc2VyaWYiIHk9IjUyMCIgeD0iNzYiPjc8L3RleHQ+PHRleHQgc3R5bGU9ImZvbnQtc2l6ZTogMTZweDsgZm9udC13ZWlnaHQ6IDQwMDsiIGR5PSIxZW0iIGNsYXNzPSJtZXNzYWdlVGV4dCIgYWxpZ25tZW50LWJhc2VsaW5lPSJtaWRkbGUiIGRvbWluYW50LWJhc2VsaW5lPSJtaWRkbGUiIHRleHQtYW5jaG9yPSJtaWRkbGUiIHk9IjUzMSIgeD0iMjQ5OCI+VmVyaWZ5IHRlc3QgY2FzZXM8L3RleHQ+PHBhdGggc3R5bGU9ImZpbGw6IG5vbmU7IiBtYXJrZXItc3RhcnQ9InVybCgjc2VxdWVuY2VudW1iZXIpIiBtYXJrZXItZW5kPSJ1cmwoI2Fycm93aGVhZCkiIHN0cm9rZT0ibm9uZSIgc3Ryb2tlLXdpZHRoPSIyIiBjbGFzcz0ibWVzc2FnZUxpbmUwIiBkPSJNIDI0OTgsNTYyIEMgMjU1OCw1NTIgMjU1OCw1OTIgMjQ5OCw1ODIiPjwvcGF0aD48dGV4dCBjbGFzcz0ic2VxdWVuY2VOdW1iZXIiIHRleHQtYW5jaG9yPSJtaWRkbGUiIGZvbnQtc2l6ZT0iMTJweCIgZm9udC1mYW1pbHk9InNhbnMtc2VyaWYiIHk9IjU2NiIgeD0iMjQ5OCI+ODwvdGV4dD48dGV4dCBzdHlsZT0iZm9udC1zaXplOiAxNnB4OyBmb250LXdlaWdodDogNDAwOyIgZHk9IjFlbSIgY2xhc3M9Im1lc3NhZ2VUZXh0IiBhbGlnbm1lbnQtYmFzZWxpbmU9Im1pZGRsZSIgZG9taW5hbnQtYmFzZWxpbmU9Im1pZGRsZSIgdGV4dC1hbmNob3I9Im1pZGRsZSIgeT0iNjA3IiB4PSIxMjg4Ij5DTkYgVGVzdCBjYXNlcyBwYXNzZWQgb3IgcmV2aWV3ZWQ8L3RleHQ+PGxpbmUgc3R5bGU9ImZpbGw6IG5vbmU7IiBtYXJrZXItc3RhcnQ9InVybCgjc2VxdWVuY2VudW1iZXIpIiBtYXJrZXItZW5kPSJ1cmwoI2Fycm93aGVhZCkiIHN0cm9rZT0ibm9uZSIgc3Ryb2tlLXdpZHRoPSIyIiBjbGFzcz0ibWVzc2FnZUxpbmUwIiB5Mj0iNjM4IiB4Mj0iNzkiIHkxPSI2MzgiIHgxPSIyNDk2Ij48L2xpbmU+PHRleHQgY2xhc3M9InNlcXVlbmNlTnVtYmVyIiB0ZXh0LWFuY2hvcj0ibWlkZGxlIiBmb250LXNpemU9IjEycHgiIGZvbnQtZmFtaWx5PSJzYW5zLXNlcmlmIiB5PSI2NDIiIHg9IjI0OTYiPjk8L3RleHQ+PHRleHQgc3R5bGU9ImZvbnQtc2l6ZTogMTZweDsgZm9udC13ZWlnaHQ6IDQwMDsiIGR5PSIxZW0iIGNsYXNzPSJtZXNzYWdlVGV4dCIgYWxpZ25tZW50LWJhc2VsaW5lPSJtaWRkbGUiIGRvbWluYW50LWJhc2VsaW5lPSJtaWRkbGUiIHRleHQtYW5jaG9yPSJtaWRkbGUiIHk9IjY4MyIgeD0iNTA3Ij5TdGFydCBvbmVzaG90IGNlcnRpZmljYXRpb24gYXV0b21hdGlvbjwvdGV4dD48bGluZSBzdHlsZT0iZmlsbDogbm9uZTsiIG1hcmtlci1zdGFydD0idXJsKCNzZXF1ZW5jZW51bWJlcikiIG1hcmtlci1lbmQ9InVybCgjYXJyb3doZWFkKSIgc3Ryb2tlPSJub25lIiBzdHJva2Utd2lkdGg9IjIiIGNsYXNzPSJtZXNzYWdlTGluZTAiIHkyPSI3MTQiIHgyPSI5MzguNSIgeTE9IjcxNCIgeDE9Ijc2Ij48L2xpbmU+PHRleHQgY2xhc3M9InNlcXVlbmNlTnVtYmVyIiB0ZXh0LWFuY2hvcj0ibWlkZGxlIiBmb250LXNpemU9IjEycHgiIGZvbnQtZmFtaWx5PSJzYW5zLXNlcmlmIiB5PSI3MTgiIHg9Ijc2Ij4xMDwvdGV4dD48dGV4dCBzdHlsZT0iZm9udC1zaXplOiAxNnB4OyBmb250LXdlaWdodDogNDAwOyIgZHk9IjFlbSIgY2xhc3M9Im1lc3NhZ2VUZXh0IiBhbGlnbm1lbnQtYmFzZWxpbmU9Im1pZGRsZSIgZG9taW5hbnQtYmFzZWxpbmU9Im1pZGRsZSIgdGV4dC1hbmNob3I9Im1pZGRsZSIgeT0iNzU5IiB4PSI5NDQiPlN0YXJ0IGNvbnRhaW5lciBjZXJ0aWZpY2F0aW9uIHByb2Nlc3M8L3RleHQ+PHBhdGggc3R5bGU9ImZpbGw6IG5vbmU7IiBtYXJrZXItc3RhcnQ9InVybCgjc2VxdWVuY2VudW1iZXIpIiBtYXJrZXItZW5kPSJ1cmwoI2Fycm93aGVhZCkiIHN0cm9rZT0ibm9uZSIgc3Ryb2tlLXdpZHRoPSIyIiBjbGFzcz0ibWVzc2FnZUxpbmUwIiBkPSJNIDk0My41LDc5MCBDIDEwMDMuNSw3ODAgMTAwMy41LDgyMCA5NDMuNSw4MTAiPjwvcGF0aD48dGV4dCBjbGFzcz0ic2VxdWVuY2VOdW1iZXIiIHRleHQtYW5jaG9yPSJtaWRkbGUiIGZvbnQtc2l6ZT0iMTJweCIgZm9udC1mYW1pbHk9InNhbnMtc2VyaWYiIHk9Ijc5NCIgeD0iOTQzLjUiPjExPC90ZXh0Pjx0ZXh0IHN0eWxlPSJmb250LXNpemU6IDE2cHg7IGZvbnQtd2VpZ2h0OiA0MDA7IiBkeT0iMWVtIiBjbGFzcz0ibWVzc2FnZVRleHQiIGFsaWdubWVudC1iYXNlbGluZT0ibWlkZGxlIiBkb21pbmFudC1iYXNlbGluZT0ibWlkZGxlIiB0ZXh0LWFuY2hvcj0ibWlkZGxlIiB5PSI5MjQiIHg9IjEyNjYiPkNyZWF0ZSBjb250YWluZXIgcHJvamVjdCx1cGRhdGUsIGF0dGFjaCB0byBQTDwvdGV4dD48bGluZSBzdHlsZT0iZmlsbDogbm9uZTsiIG1hcmtlci1zdGFydD0idXJsKCNzZXF1ZW5jZW51bWJlcikiIG1hcmtlci1lbmQ9InVybCgjYXJyb3doZWFkKSIgc3Ryb2tlPSJub25lIiBzdHJva2Utd2lkdGg9IjIiIGNsYXNzPSJtZXNzYWdlTGluZTAiIHkyPSI5NTUiIHgyPSIxNTg4LjUiIHkxPSI5NTUiIHgxPSI5NDMuNSI+PC9saW5lPjx0ZXh0IGNsYXNzPSJzZXF1ZW5jZU51bWJlciIgdGV4dC1hbmNob3I9Im1pZGRsZSIgZm9udC1zaXplPSIxMnB4IiBmb250LWZhbWlseT0ic2Fucy1zZXJpZiIgeT0iOTU5IiB4PSI5NDMuNSI+MTI8L3RleHQ+PHRleHQgc3R5bGU9ImZvbnQtc2l6ZTogMTZweDsgZm9udC13ZWlnaHQ6IDQwMDsiIGR5PSIxZW0iIGNsYXNzPSJtZXNzYWdlVGV4dCIgYWxpZ25tZW50LWJhc2VsaW5lPSJtaWRkbGUiIGRvbWluYW50LWJhc2VsaW5lPSJtaWRkbGUiIHRleHQtYW5jaG9yPSJtaWRkbGUiIHk9Ijk3MCIgeD0iNjU4Ij5JbnZva2UgUHJlZmxpZ2h0PC90ZXh0PjxsaW5lIHN0eWxlPSJmaWxsOiBub25lOyIgbWFya2VyLXN0YXJ0PSJ1cmwoI3NlcXVlbmNlbnVtYmVyKSIgbWFya2VyLWVuZD0idXJsKCNhcnJvd2hlYWQpIiBzdHJva2U9Im5vbmUiIHN0cm9rZS13aWR0aD0iMiIgY2xhc3M9Im1lc3NhZ2VMaW5lMCIgeTI9IjEwMDEiIHgyPSIzNzQiIHkxPSIxMDAxIiB4MT0iOTQxLjUiPjwvbGluZT48dGV4dCBjbGFzcz0ic2VxdWVuY2VOdW1iZXIiIHRleHQtYW5jaG9yPSJtaWRkbGUiIGZvbnQtc2l6ZT0iMTJweCIgZm9udC1mYW1pbHk9InNhbnMtc2VyaWYiIHk9IjEwMDUiIHg9Ijk0MS41Ij4xMzwvdGV4dD48dGV4dCBzdHlsZT0iZm9udC1zaXplOiAxNnB4OyBmb250LXdlaWdodDogNDAwOyIgZHk9IjFlbSIgY2xhc3M9Im1lc3NhZ2VUZXh0IiBhbGlnbm1lbnQtYmFzZWxpbmU9Im1pZGRsZSIgZG9taW5hbnQtYmFzZWxpbmU9Im1pZGRsZSIgdGV4dC1hbmNob3I9Im1pZGRsZSIgeT0iMTAxNiIgeD0iMTEzNSI+UHJlZmxpZ2h0IHRlc3QgZWFjaCBjb250YWluZXIgc2VxdWVuY2lhbGx5PC90ZXh0PjxsaW5lIHN0eWxlPSJmaWxsOiBub25lOyIgbWFya2VyLXN0YXJ0PSJ1cmwoI3NlcXVlbmNlbnVtYmVyKSIgbWFya2VyLWVuZD0idXJsKCNhcnJvd2hlYWQpIiBzdHJva2U9Im5vbmUiIHN0cm9rZS13aWR0aD0iMiIgY2xhc3M9Im1lc3NhZ2VMaW5lMCIgeTI9IjEwNDciIHgyPSIxODk4LjUiIHkxPSIxMDQ3IiB4MT0iMzcxIj48L2xpbmU+PHRleHQgY2xhc3M9InNlcXVlbmNlTnVtYmVyIiB0ZXh0LWFuY2hvcj0ibWlkZGxlIiBmb250LXNpemU9IjEycHgiIGZvbnQtZmFtaWx5PSJzYW5zLXNlcmlmIiB5PSIxMDUxIiB4PSIzNzEiPjE0PC90ZXh0Pjx0ZXh0IHN0eWxlPSJmb250LXNpemU6IDE2cHg7IGZvbnQtd2VpZ2h0OiA0MDA7IiBkeT0iMWVtIiBjbGFzcz0ibWVzc2FnZVRleHQiIGFsaWdubWVudC1iYXNlbGluZT0ibWlkZGxlIiBkb21pbmFudC1iYXNlbGluZT0ibWlkZGxlIiB0ZXh0LWFuY2hvcj0ibWlkZGxlIiB5PSIxMDYyIiB4PSI5ODAiPlByZWZsaWdodCBzdWJtaXQgdGVzdCByZXBvcnQgdG8gZWFjaCBjb250YWluZXIgcHJvamVjdDwvdGV4dD48bGluZSBzdHlsZT0iZmlsbDogbm9uZTsiIG1hcmtlci1zdGFydD0idXJsKCNzZXF1ZW5jZW51bWJlcikiIG1hcmtlci1lbmQ9InVybCgjYXJyb3doZWFkKSIgc3Ryb2tlPSJub25lIiBzdHJva2Utd2lkdGg9IjIiIGNsYXNzPSJtZXNzYWdlTGluZTAiIHkyPSIxMDkzIiB4Mj0iMTU4OC41IiB5MT0iMTA5MyIgeDE9IjM3MSI+PC9saW5lPjx0ZXh0IGNsYXNzPSJzZXF1ZW5jZU51bWJlciIgdGV4dC1hbmNob3I9Im1pZGRsZSIgZm9udC1zaXplPSIxMnB4IiBmb250LWZhbWlseT0ic2Fucy1zZXJpZiIgeT0iMTA5NyIgeD0iMzcxIj4xNTwvdGV4dD48dGV4dCBzdHlsZT0iZm9udC1zaXplOiAxNnB4OyBmb250LXdlaWdodDogNDAwOyIgZHk9IjFlbSIgY2xhc3M9Im1lc3NhZ2VUZXh0IiBhbGlnbm1lbnQtYmFzZWxpbmU9Im1pZGRsZSIgZG9taW5hbnQtYmFzZWxpbmU9Im1pZGRsZSIgdGV4dC1hbmNob3I9Im1pZGRsZSIgeT0iMTEwOCIgeD0iMTU5NCI+U3RhcnQgdXBkYXRlLCBhdHRhY2ggY29udGFpbmVyIHByb2plY3QsIENWRSBzY2FuPC90ZXh0PjxwYXRoIHN0eWxlPSJmaWxsOiBub25lOyIgbWFya2VyLXN0YXJ0PSJ1cmwoI3NlcXVlbmNlbnVtYmVyKSIgbWFya2VyLWVuZD0idXJsKCNhcnJvd2hlYWQpIiBzdHJva2U9Im5vbmUiIHN0cm9rZS13aWR0aD0iMiIgY2xhc3M9Im1lc3NhZ2VMaW5lMCIgZD0iTSAxNTkzLjUsMTEzOSBDIDE2NTMuNSwxMTI5IDE2NTMuNSwxMTY5IDE1OTMuNSwxMTU5Ij48L3BhdGg+PHRleHQgY2xhc3M9InNlcXVlbmNlTnVtYmVyIiB0ZXh0LWFuY2hvcj0ibWlkZGxlIiBmb250LXNpemU9IjEycHgiIGZvbnQtZmFtaWx5PSJzYW5zLXNlcmlmIiB5PSIxMTQzIiB4PSIxNTkzLjUiPjE2PC90ZXh0Pjx0ZXh0IHN0eWxlPSJmb250LXNpemU6IDE2cHg7IGZvbnQtd2VpZ2h0OiA0MDA7IiBkeT0iMWVtIiBjbGFzcz0ibWVzc2FnZVRleHQiIGFsaWdubWVudC1iYXNlbGluZT0ibWlkZGxlIiBkb21pbmFudC1iYXNlbGluZT0ibWlkZGxlIiB0ZXh0LWFuY2hvcj0ibWlkZGxlIiB5PSIxMTg0IiB4PSIyNDk2Ij5SZXF1ZXN0IHRvIHB1Ymxpc2ggdGhlIGNvbnRhaW5lcjwvdGV4dD48bGluZSBzdHlsZT0iZmlsbDogbm9uZTsiIG1hcmtlci1zdGFydD0idXJsKCNzZXF1ZW5jZW51bWJlcikiIG1hcmtlci1lbmQ9InVybCgjYXJyb3doZWFkKSIgc3Ryb2tlPSJub25lIiBzdHJva2Utd2lkdGg9IjIiIGNsYXNzPSJtZXNzYWdlTGluZTAiIHkyPSIxMjE1IiB4Mj0iMzM5OC41IiB5MT0iMTIxNSIgeDE9IjE1OTMuNSI+PC9saW5lPjx0ZXh0IGNsYXNzPSJzZXF1ZW5jZU51bWJlciIgdGV4dC1hbmNob3I9Im1pZGRsZSIgZm9udC1zaXplPSIxMnB4IiBmb250LWZhbWlseT0ic2Fucy1zZXJpZiIgeT0iMTIxOSIgeD0iMTU5My41Ij4xNzwvdGV4dD48dGV4dCBzdHlsZT0iZm9udC1zaXplOiAxNnB4OyBmb250LXdlaWdodDogNDAwOyIgZHk9IjFlbSIgY2xhc3M9Im1lc3NhZ2VUZXh0IiBhbGlnbm1lbnQtYmFzZWxpbmU9Im1pZGRsZSIgZG9taW5hbnQtYmFzZWxpbmU9Im1pZGRsZSIgdGV4dC1hbmNob3I9Im1pZGRsZSIgeT0iMTI1MCIgeD0iOTQ0Ij5Ib29rOiBXYWl0IHVwIHRvIDFociBmb3IgY29udGFpbmVyIHRvIGFwcGVhciBvbiBjYXRhbG9nPC90ZXh0PjxwYXRoIHN0eWxlPSJmaWxsOiBub25lOyIgbWFya2VyLXN0YXJ0PSJ1cmwoI3NlcXVlbmNlbnVtYmVyKSIgbWFya2VyLWVuZD0idXJsKCNhcnJvd2hlYWQpIiBzdHJva2U9Im5vbmUiIHN0cm9rZS13aWR0aD0iMiIgY2xhc3M9Im1lc3NhZ2VMaW5lMCIgZD0iTSA5NDMuNSwxMjgxIEMgMTAwMy41LDEyNzEgMTAwMy41LDEzMTEgOTQzLjUsMTMwMSI+PC9wYXRoPjx0ZXh0IGNsYXNzPSJzZXF1ZW5jZU51bWJlciIgdGV4dC1hbmNob3I9Im1pZGRsZSIgZm9udC1zaXplPSIxMnB4IiBmb250LWZhbWlseT0ic2Fucy1zZXJpZiIgeT0iMTI4NSIgeD0iOTQzLjUiPjE4PC90ZXh0Pjx0ZXh0IHN0eWxlPSJmb250LXNpemU6IDE2cHg7IGZvbnQtd2VpZ2h0OiA0MDA7IiBkeT0iMWVtIiBjbGFzcz0ibWVzc2FnZVRleHQiIGFsaWdubWVudC1iYXNlbGluZT0ibWlkZGxlIiBkb21pbmFudC1iYXNlbGluZT0ibWlkZGxlIiB0ZXh0LWFuY2hvcj0ibWlkZGxlIiB5PSIxMzY2IiB4PSIxMjY2Ij5TdGFydCBxdWVyeSBjb250YWluZXIgcHVibGljYXRpb24gc3RhdHVzPC90ZXh0PjxsaW5lIHN0eWxlPSJmaWxsOiBub25lOyIgbWFya2VyLXN0YXJ0PSJ1cmwoI3NlcXVlbmNlbnVtYmVyKSIgbWFya2VyLWVuZD0idXJsKCNhcnJvd2hlYWQpIiBzdHJva2U9Im5vbmUiIHN0cm9rZS13aWR0aD0iMiIgY2xhc3M9Im1lc3NhZ2VMaW5lMCIgeTI9IjEzOTciIHgyPSIxNTg4LjUiIHkxPSIxMzk3IiB4MT0iOTQzLjUiPjwvbGluZT48dGV4dCBjbGFzcz0ic2VxdWVuY2VOdW1iZXIiIHRleHQtYW5jaG9yPSJtaWRkbGUiIGZvbnQtc2l6ZT0iMTJweCIgZm9udC1mYW1pbHk9InNhbnMtc2VyaWYiIHk9IjE0MDEiIHg9Ijk0My41Ij4xOTwvdGV4dD48dGV4dCBzdHlsZT0iZm9udC1zaXplOiAxNnB4OyBmb250LXdlaWdodDogNDAwOyIgZHk9IjFlbSIgY2xhc3M9Im1lc3NhZ2VUZXh0IiBhbGlnbm1lbnQtYmFzZWxpbmU9Im1pZGRsZSIgZG9taW5hbnQtYmFzZWxpbmU9Im1pZGRsZSIgdGV4dC1hbmNob3I9Im1pZGRsZSIgeT0iMTQxMiIgeD0iMTI2OSI+Q29uZmlybWF0aW9uIG9mIENvbnRhaW5lciBwdWJsaWNhdGlvbjwvdGV4dD48bGluZSBzdHlsZT0iZmlsbDogbm9uZTsiIG1hcmtlci1zdGFydD0idXJsKCNzZXF1ZW5jZW51bWJlcikiIG1hcmtlci1lbmQ9InVybCgjYXJyb3doZWFkKSIgc3Ryb2tlPSJub25lIiBzdHJva2Utd2lkdGg9IjIiIGNsYXNzPSJtZXNzYWdlTGluZTAiIHkyPSIxNDQzIiB4Mj0iOTQ2LjUiIHkxPSIxNDQzIiB4MT0iMTU5MS41Ij48L2xpbmU+PHRleHQgY2xhc3M9InNlcXVlbmNlTnVtYmVyIiB0ZXh0LWFuY2hvcj0ibWlkZGxlIiBmb250LXNpemU9IjEycHgiIGZvbnQtZmFtaWx5PSJzYW5zLXNlcmlmIiB5PSIxNDQ3IiB4PSIxNTkxLjUiPjIwPC90ZXh0Pjx0ZXh0IHN0eWxlPSJmb250LXNpemU6IDE2cHg7IGZvbnQtd2VpZ2h0OiA0MDA7IiBkeT0iMWVtIiBjbGFzcz0ibWVzc2FnZVRleHQiIGFsaWdubWVudC1iYXNlbGluZT0ibWlkZGxlIiBkb21pbmFudC1iYXNlbGluZT0ibWlkZGxlIiB0ZXh0LWFuY2hvcj0ibWlkZGxlIiB5PSIxNDc4IiB4PSI5NDQiPlN0YXJ0IG9uZXNob3QgaGVsbWNoYXJ0IGNlcnRpZmljYXRpb24gcHJvY2VzczwvdGV4dD48cGF0aCBzdHlsZT0iZmlsbDogbm9uZTsiIG1hcmtlci1zdGFydD0idXJsKCNzZXF1ZW5jZW51bWJlcikiIG1hcmtlci1lbmQ9InVybCgjYXJyb3doZWFkKSIgc3Ryb2tlPSJub25lIiBzdHJva2Utd2lkdGg9IjIiIGNsYXNzPSJtZXNzYWdlTGluZTAiIGQ9Ik0gOTQzLjUsMTUwOSBDIDEwMDMuNSwxNDk5IDEwMDMuNSwxNTM5IDk0My41LDE1MjkiPjwvcGF0aD48dGV4dCBjbGFzcz0ic2VxdWVuY2VOdW1iZXIiIHRleHQtYW5jaG9yPSJtaWRkbGUiIGZvbnQtc2l6ZT0iMTJweCIgZm9udC1mYW1pbHk9InNhbnMtc2VyaWYiIHk9IjE1MTMiIHg9Ijk0My41Ij4yMTwvdGV4dD48dGV4dCBzdHlsZT0iZm9udC1zaXplOiAxNnB4OyBmb250LXdlaWdodDogNDAwOyIgZHk9IjFlbSIgY2xhc3M9Im1lc3NhZ2VUZXh0IiBhbGlnbm1lbnQtYmFzZWxpbmU9Im1pZGRsZSIgZG9taW5hbnQtYmFzZWxpbmU9Im1pZGRsZSIgdGV4dC1hbmNob3I9Im1pZGRsZSIgeT0iMTY0MyIgeD0iMTI2NiI+U3RhcnQgY3JlYXRlIGhlbG0gY2hhcnQgcHJvamVjdCwgdXBkYXRlLCBhdHRhY2ggUEwgYW5kIFBSIHRvIGNyZWF0ZSBPV05FUlMgZmlsZTwvdGV4dD48bGluZSBzdHlsZT0iZmlsbDogbm9uZTsiIG1hcmtlci1zdGFydD0idXJsKCNzZXF1ZW5jZW51bWJlcikiIG1hcmtlci1lbmQ9InVybCgjYXJyb3doZWFkKSIgc3Ryb2tlPSJub25lIiBzdHJva2Utd2lkdGg9IjIiIGNsYXNzPSJtZXNzYWdlTGluZTAiIHkyPSIxNjc0IiB4Mj0iMTU4OC41IiB5MT0iMTY3NCIgeDE9Ijk0My41Ij48L2xpbmU+PHRleHQgY2xhc3M9InNlcXVlbmNlTnVtYmVyIiB0ZXh0LWFuY2hvcj0ibWlkZGxlIiBmb250LXNpemU9IjEycHgiIGZvbnQtZmFtaWx5PSJzYW5zLXNlcmlmIiB5PSIxNjc4IiB4PSI5NDMuNSI+MjI8L3RleHQ+PHRleHQgc3R5bGU9ImZvbnQtc2l6ZTogMTZweDsgZm9udC13ZWlnaHQ6IDQwMDsiIGR5PSIxZW0iIGNsYXNzPSJtZXNzYWdlVGV4dCIgYWxpZ25tZW50LWJhc2VsaW5lPSJtaWRkbGUiIGRvbWluYW50LWJhc2VsaW5lPSJtaWRkbGUiIHRleHQtYW5jaG9yPSJtaWRkbGUiIHk9IjE2ODkiIHg9IjE5MTYiPlJlcXVlc3QgUFIgdG8gY3JlYXRlIC8gdXBkYXRlIE9XTkVSUyBmaWxlPC90ZXh0PjxsaW5lIHN0eWxlPSJmaWxsOiBub25lOyIgbWFya2VyLXN0YXJ0PSJ1cmwoI3NlcXVlbmNlbnVtYmVyKSIgbWFya2VyLWVuZD0idXJsKCNhcnJvd2hlYWQpIiBzdHJva2U9Im5vbmUiIHN0cm9rZS13aWR0aD0iMiIgY2xhc3M9Im1lc3NhZ2VMaW5lMCIgeTI9IjE3MjAiIHgyPSIyMjM4LjUiIHkxPSIxNzIwIiB4MT0iMTU5My41Ij48L2xpbmU+PHRleHQgY2xhc3M9InNlcXVlbmNlTnVtYmVyIiB0ZXh0LWFuY2hvcj0ibWlkZGxlIiBmb250LXNpemU9IjEycHgiIGZvbnQtZmFtaWx5PSJzYW5zLXNlcmlmIiB5PSIxNzI0IiB4PSIxNTkzLjUiPjIzPC90ZXh0Pjx0ZXh0IHN0eWxlPSJmb250LXNpemU6IDE2cHg7IGZvbnQtd2VpZ2h0OiA0MDA7IiBkeT0iMWVtIiBjbGFzcz0ibWVzc2FnZVRleHQiIGFsaWdubWVudC1iYXNlbGluZT0ibWlkZGxlIiBkb21pbmFudC1iYXNlbGluZT0ibWlkZGxlIiB0ZXh0LWFuY2hvcj0ibWlkZGxlIiB5PSIxNzM1IiB4PSIxOTE2Ij5XYWl0IGZvciBPV05FUlMgZmlsZSBQUiB0byBiZSBjb21wbGV0ZWQ8L3RleHQ+PGxpbmUgc3R5bGU9ImZpbGw6IG5vbmU7IiBtYXJrZXItc3RhcnQ9InVybCgjc2VxdWVuY2VudW1iZXIpIiBtYXJrZXItZW5kPSJ1cmwoI2Fycm93aGVhZCkiIHN0cm9rZT0ibm9uZSIgc3Ryb2tlLXdpZHRoPSIyIiBjbGFzcz0ibWVzc2FnZUxpbmUwIiB5Mj0iMTc2NiIgeDI9IjIyMzguNSIgeTE9IjE3NjYiIHgxPSIxNTkzLjUiPjwvbGluZT48dGV4dCBjbGFzcz0ic2VxdWVuY2VOdW1iZXIiIHRleHQtYW5jaG9yPSJtaWRkbGUiIGZvbnQtc2l6ZT0iMTJweCIgZm9udC1mYW1pbHk9InNhbnMtc2VyaWYiIHk9IjE3NzAiIHg9IjE1OTMuNSI+MjQ8L3RleHQ+PHRleHQgc3R5bGU9ImZvbnQtc2l6ZTogMTZweDsgZm9udC13ZWlnaHQ6IDQwMDsiIGR5PSIxZW0iIGNsYXNzPSJtZXNzYWdlVGV4dCIgYWxpZ25tZW50LWJhc2VsaW5lPSJtaWRkbGUiIGRvbWluYW50LWJhc2VsaW5lPSJtaWRkbGUiIHRleHQtYW5jaG9yPSJtaWRkbGUiIHk9IjE3ODEiIHg9Ijc1OCI+SW52b2tlIGNoYXJ0LXZlcmlmaWVyPC90ZXh0PjxsaW5lIHN0eWxlPSJmaWxsOiBub25lOyIgbWFya2VyLXN0YXJ0PSJ1cmwoI3NlcXVlbmNlbnVtYmVyKSIgbWFya2VyLWVuZD0idXJsKCNhcnJvd2hlYWQpIiBzdHJva2U9Im5vbmUiIHN0cm9rZS13aWR0aD0iMiIgY2xhc3M9Im1lc3NhZ2VMaW5lMCIgeTI9IjE4MTIiIHgyPSI1NzQiIHkxPSIxODEyIiB4MT0iOTQxLjUiPjwvbGluZT48dGV4dCBjbGFzcz0ic2VxdWVuY2VOdW1iZXIiIHRleHQtYW5jaG9yPSJtaWRkbGUiIGZvbnQtc2l6ZT0iMTJweCIgZm9udC1mYW1pbHk9InNhbnMtc2VyaWYiIHk9IjE4MTYiIHg9Ijk0MS41Ij4yNTwvdGV4dD48dGV4dCBzdHlsZT0iZm9udC1zaXplOiAxNnB4OyBmb250LXdlaWdodDogNDAwOyIgZHk9IjFlbSIgY2xhc3M9Im1lc3NhZ2VUZXh0IiBhbGlnbm1lbnQtYmFzZWxpbmU9Im1pZGRsZSIgZG9taW5hbnQtYmFzZWxpbmU9Im1pZGRsZSIgdGV4dC1hbmNob3I9Im1pZGRsZSIgeT0iMTgyNyIgeD0iMTIzNSI+RGVwbG95IGhlbG1jaGFydCwgcnVuIGNoYXJ0LXZlcmlmaWVyIHRlc3Rpbmc8L3RleHQ+PGxpbmUgc3R5bGU9ImZpbGw6IG5vbmU7IiBtYXJrZXItc3RhcnQ9InVybCgjc2VxdWVuY2VudW1iZXIpIiBtYXJrZXItZW5kPSJ1cmwoI2Fycm93aGVhZCkiIHN0cm9rZT0ibm9uZSIgc3Ryb2tlLXdpZHRoPSIyIiBjbGFzcz0ibWVzc2FnZUxpbmUwIiB5Mj0iMTg1OCIgeDI9IjE4OTguNSIgeTE9IjE4NTgiIHgxPSI1NzEiPjwvbGluZT48dGV4dCBjbGFzcz0ic2VxdWVuY2VOdW1iZXIiIHRleHQtYW5jaG9yPSJtaWRkbGUiIGZvbnQtc2l6ZT0iMTJweCIgZm9udC1mYW1pbHk9InNhbnMtc2VyaWYiIHk9IjE4NjIiIHg9IjU3MSI+MjY8L3RleHQ+PHRleHQgc3R5bGU9ImZvbnQtc2l6ZTogMTZweDsgZm9udC13ZWlnaHQ6IDQwMDsiIGR5PSIxZW0iIGNsYXNzPSJtZXNzYWdlVGV4dCIgYWxpZ25tZW50LWJhc2VsaW5lPSJtaWRkbGUiIGRvbWluYW50LWJhc2VsaW5lPSJtaWRkbGUiIHRleHQtYW5jaG9yPSJtaWRkbGUiIHk9IjE4NzMiIHg9Ijc1NSI+UmVwb3J0LnlhbWwgZ2VuZXJhdGVkPC90ZXh0PjxsaW5lIHN0eWxlPSJmaWxsOiBub25lOyIgbWFya2VyLXN0YXJ0PSJ1cmwoI3NlcXVlbmNlbnVtYmVyKSIgbWFya2VyLWVuZD0idXJsKCNhcnJvd2hlYWQpIiBzdHJva2U9Im5vbmUiIHN0cm9rZS13aWR0aD0iMiIgY2xhc3M9Im1lc3NhZ2VMaW5lMCIgeTI9IjE5MDQiIHgyPSI5MzguNSIgeTE9IjE5MDQiIHgxPSI1NzEiPjwvbGluZT48dGV4dCBjbGFzcz0ic2VxdWVuY2VOdW1iZXIiIHRleHQtYW5jaG9yPSJtaWRkbGUiIGZvbnQtc2l6ZT0iMTJweCIgZm9udC1mYW1pbHk9InNhbnMtc2VyaWYiIHk9IjE5MDgiIHg9IjU3MSI+Mjc8L3RleHQ+PHRleHQgc3R5bGU9ImZvbnQtc2l6ZTogMTZweDsgZm9udC13ZWlnaHQ6IDQwMDsiIGR5PSIxZW0iIGNsYXNzPSJtZXNzYWdlVGV4dCIgYWxpZ25tZW50LWJhc2VsaW5lPSJtaWRkbGUiIGRvbWluYW50LWJhc2VsaW5lPSJtaWRkbGUiIHRleHQtYW5jaG9yPSJtaWRkbGUiIHk9IjE5MTkiIHg9IjE1OTEiPlN0YXJ0IEhlbG0gQ2hhcnQgUmVwb3J0IHdpdGgvd2l0aG91dCBjaGFydCBQUiBtZXJnZSB0byBwdWJsaWMgQ2hhcnQgcmVwb3NpdG9yeTwvdGV4dD48bGluZSBzdHlsZT0iZmlsbDogbm9uZTsiIG1hcmtlci1zdGFydD0idXJsKCNzZXF1ZW5jZW51bWJlcikiIG1hcmtlci1lbmQ9InVybCgjYXJyb3doZWFkKSIgc3Ryb2tlPSJub25lIiBzdHJva2Utd2lkdGg9IjIiIGNsYXNzPSJtZXNzYWdlTGluZTAiIHkyPSIxOTUwIiB4Mj0iMjIzOC41IiB5MT0iMTk1MCIgeDE9Ijk0My41Ij48L2xpbmU+PHRleHQgY2xhc3M9InNlcXVlbmNlTnVtYmVyIiB0ZXh0LWFuY2hvcj0ibWlkZGxlIiBmb250LXNpemU9IjEycHgiIGZvbnQtZmFtaWx5PSJzYW5zLXNlcmlmIiB5PSIxOTU0IiB4PSI5NDMuNSI+Mjg8L3RleHQ+PHRleHQgc3R5bGU9ImZvbnQtc2l6ZTogMTZweDsgZm9udC13ZWlnaHQ6IDQwMDsiIGR5PSIxZW0iIGNsYXNzPSJtZXNzYWdlVGV4dCIgYWxpZ25tZW50LWJhc2VsaW5lPSJtaWRkbGUiIGRvbWluYW50LWJhc2VsaW5lPSJtaWRkbGUiIHRleHQtYW5jaG9yPSJtaWRkbGUiIHk9IjE5NjUiIHg9IjIyNDQiPldhaXQgZm9yIFBSIHZlcmlmaWNhdGlvbiB0byBiZSBjb21wbGV0ZWQ8L3RleHQ+PHBhdGggc3R5bGU9ImZpbGw6IG5vbmU7IiBtYXJrZXItc3RhcnQ9InVybCgjc2VxdWVuY2VudW1iZXIpIiBtYXJrZXItZW5kPSJ1cmwoI2Fycm93aGVhZCkiIHN0cm9rZT0ibm9uZSIgc3Ryb2tlLXdpZHRoPSIyIiBjbGFzcz0ibWVzc2FnZUxpbmUwIiBkPSJNIDIyNDMuNSwxOTk2IEMgMjMwMy41LDE5ODYgMjMwMy41LDIwMjYgMjI0My41LDIwMTYiPjwvcGF0aD48dGV4dCBjbGFzcz0ic2VxdWVuY2VOdW1iZXIiIHRleHQtYW5jaG9yPSJtaWRkbGUiIGZvbnQtc2l6ZT0iMTJweCIgZm9udC1mYW1pbHk9InNhbnMtc2VyaWYiIHk9IjIwMDAiIHg9IjIyNDMuNSI+Mjk8L3RleHQ+PHRleHQgc3R5bGU9ImZvbnQtc2l6ZTogMTZweDsgZm9udC13ZWlnaHQ6IDQwMDsiIGR5PSIxZW0iIGNsYXNzPSJtZXNzYWdlVGV4dCIgYWxpZ25tZW50LWJhc2VsaW5lPSJtaWRkbGUiIGRvbWluYW50LWJhc2VsaW5lPSJtaWRkbGUiIHRleHQtYW5jaG9yPSJtaWRkbGUiIHk9IjIwNDEiIHg9IjE5MTkiPkNvbmZpcm0gSGVsbSBDaGFydCBpcyBtZXJnZWQ8L3RleHQ+PGxpbmUgc3R5bGU9ImZpbGw6IG5vbmU7IiBtYXJrZXItc3RhcnQ9InVybCgjc2VxdWVuY2VudW1iZXIpIiBtYXJrZXItZW5kPSJ1cmwoI2Fycm93aGVhZCkiIHN0cm9rZT0ibm9uZSIgc3Ryb2tlLXdpZHRoPSIyIiBjbGFzcz0ibWVzc2FnZUxpbmUwIiB5Mj0iMjA3MiIgeDI9IjE1OTYuNSIgeTE9IjIwNzIiIHgxPSIyMjQxLjUiPjwvbGluZT48dGV4dCBjbGFzcz0ic2VxdWVuY2VOdW1iZXIiIHRleHQtYW5jaG9yPSJtaWRkbGUiIGZvbnQtc2l6ZT0iMTJweCIgZm9udC1mYW1pbHk9InNhbnMtc2VyaWYiIHk9IjIwNzYiIHg9IjIyNDEuNSI+MzA8L3RleHQ+PHRleHQgc3R5bGU9ImZvbnQtc2l6ZTogMTZweDsgZm9udC13ZWlnaHQ6IDQwMDsiIGR5PSIxZW0iIGNsYXNzPSJtZXNzYWdlVGV4dCIgYWxpZ25tZW50LWJhc2VsaW5lPSJtaWRkbGUiIGRvbWluYW50LWJhc2VsaW5lPSJtaWRkbGUiIHRleHQtYW5jaG9yPSJtaWRkbGUiIHk9IjIwODciIHg9IjI0OTYiPkhlbG0gY2hhcnQgcHJvamVjdCBpcyBwdWJsaXNoZWQgdG8gY2F0YWxvZzwvdGV4dD48bGluZSBzdHlsZT0iZmlsbDogbm9uZTsiIG1hcmtlci1zdGFydD0idXJsKCNzZXF1ZW5jZW51bWJlcikiIG1hcmtlci1lbmQ9InVybCgjYXJyb3doZWFkKSIgc3Ryb2tlPSJub25lIiBzdHJva2Utd2lkdGg9IjIiIGNsYXNzPSJtZXNzYWdlTGluZTAiIHkyPSIyMTE4IiB4Mj0iMzM5OC41IiB5MT0iMjExOCIgeDE9IjE1OTMuNSI+PC9saW5lPjx0ZXh0IGNsYXNzPSJzZXF1ZW5jZU51bWJlciIgdGV4dC1hbmNob3I9Im1pZGRsZSIgZm9udC1zaXplPSIxMnB4IiBmb250LWZhbWlseT0ic2Fucy1zZXJpZiIgeT0iMjEyMiIgeD0iMTU5My41Ij4zMTwvdGV4dD48dGV4dCBzdHlsZT0iZm9udC1zaXplOiAxNnB4OyBmb250LXdlaWdodDogNDAwOyIgZHk9IjFlbSIgY2xhc3M9Im1lc3NhZ2VUZXh0IiBhbGlnbm1lbnQtYmFzZWxpbmU9Im1pZGRsZSIgZG9taW5hbnQtYmFzZWxpbmU9Im1pZGRsZSIgdGV4dC1hbmNob3I9Im1pZGRsZSIgeT0iMjE1MyIgeD0iOTQ0Ij5TdGFydCBDTkYgY2VydGlmaWNhdGlvbiBwcm9jZXNzPC90ZXh0PjxwYXRoIHN0eWxlPSJmaWxsOiBub25lOyIgbWFya2VyLXN0YXJ0PSJ1cmwoI3NlcXVlbmNlbnVtYmVyKSIgbWFya2VyLWVuZD0idXJsKCNhcnJvd2hlYWQpIiBzdHJva2U9Im5vbmUiIHN0cm9rZS13aWR0aD0iMiIgY2xhc3M9Im1lc3NhZ2VMaW5lMCIgZD0iTSA5NDMuNSwyMTg0IEMgMTAwMy41LDIxNzQgMTAwMy41LDIyMTQgOTQzLjUsMjIwNCI+PC9wYXRoPjx0ZXh0IGNsYXNzPSJzZXF1ZW5jZU51bWJlciIgdGV4dC1hbmNob3I9Im1pZGRsZSIgZm9udC1zaXplPSIxMnB4IiBmb250LWZhbWlseT0ic2Fucy1zZXJpZiIgeT0iMjE4OCIgeD0iOTQzLjUiPjMyPC90ZXh0Pjx0ZXh0IHN0eWxlPSJmb250LXNpemU6IDE2cHg7IGZvbnQtd2VpZ2h0OiA0MDA7IiBkeT0iMWVtIiBjbGFzcz0ibWVzc2FnZVRleHQiIGFsaWdubWVudC1iYXNlbGluZT0ibWlkZGxlIiBkb21pbmFudC1iYXNlbGluZT0ibWlkZGxlIiB0ZXh0LWFuY2hvcj0ibWlkZGxlIiB5PSIyMzE4IiB4PSIxMjY2Ij5TdGFydCBDTkYgcHJvamVjdCBjcmVhdGlvbiBhbmQgYXR0YWNoIFBMPC90ZXh0PjxsaW5lIHN0eWxlPSJmaWxsOiBub25lOyIgbWFya2VyLXN0YXJ0PSJ1cmwoI3NlcXVlbmNlbnVtYmVyKSIgbWFya2VyLWVuZD0idXJsKCNhcnJvd2hlYWQpIiBzdHJva2U9Im5vbmUiIHN0cm9rZS13aWR0aD0iMiIgY2xhc3M9Im1lc3NhZ2VMaW5lMCIgeTI9IjIzNDkiIHgyPSIxNTg4LjUiIHkxPSIyMzQ5IiB4MT0iOTQzLjUiPjwvbGluZT48dGV4dCBjbGFzcz0ic2VxdWVuY2VOdW1iZXIiIHRleHQtYW5jaG9yPSJtaWRkbGUiIGZvbnQtc2l6ZT0iMTJweCIgZm9udC1mYW1pbHk9InNhbnMtc2VyaWYiIHk9IjIzNTMiIHg9Ijk0My41Ij4zMzwvdGV4dD48dGV4dCBzdHlsZT0iZm9udC1zaXplOiAxNnB4OyBmb250LXdlaWdodDogNDAwOyIgZHk9IjFlbSIgY2xhc3M9Im1lc3NhZ2VUZXh0IiBhbGlnbm1lbnQtYmFzZWxpbmU9Im1pZGRsZSIgZG9taW5hbnQtYmFzZWxpbmU9Im1pZGRsZSIgdGV4dC1hbmNob3I9Im1pZGRsZSIgeT0iMjM2NCIgeD0iMjE1NCI+T3BlbiBDTkYgY2VydC1vcHMgY2FzZSBhdXRvbWF0aWNhbGx5PC90ZXh0PjxsaW5lIHN0eWxlPSJmaWxsOiBub25lOyIgbWFya2VyLXN0YXJ0PSJ1cmwoI3NlcXVlbmNlbnVtYmVyKSIgbWFya2VyLWVuZD0idXJsKCNhcnJvd2hlYWQpIiBzdHJva2U9Im5vbmUiIHN0cm9rZS13aWR0aD0iMiIgY2xhc3M9Im1lc3NhZ2VMaW5lMCIgeTI9IjIzOTUiIHgyPSIyNzE0LjUiIHkxPSIyMzk1IiB4MT0iMTU5My41Ij48L2xpbmU+PHRleHQgY2xhc3M9InNlcXVlbmNlTnVtYmVyIiB0ZXh0LWFuY2hvcj0ibWlkZGxlIiBmb250LXNpemU9IjEycHgiIGZvbnQtZmFtaWx5PSJzYW5zLXNlcmlmIiB5PSIyMzk5IiB4PSIxNTkzLjUiPjM0PC90ZXh0Pjx0ZXh0IHN0eWxlPSJmb250LXNpemU6IDE2cHg7IGZvbnQtd2VpZ2h0OiA0MDA7IiBkeT0iMWVtIiBjbGFzcz0ibWVzc2FnZVRleHQiIGFsaWdubWVudC1iYXNlbGluZT0ibWlkZGxlIiBkb21pbmFudC1iYXNlbGluZT0ibWlkZGxlIiB0ZXh0LWFuY2hvcj0ibWlkZGxlIiB5PSIyNDEwIiB4PSIxNzE4Ij5JbnZva2UgQ05GIGNlcnRpZmljYXRpb24gc3VpdGUgYW5kIHJ1bm5pbmcgdGVzdCBhbmQgc3VibWl0IHJlcG9ydHMgdG8gRENJIHNlcnZlcjwvdGV4dD48bGluZSBzdHlsZT0iZmlsbDogbm9uZTsiIG1hcmtlci1zdGFydD0idXJsKCNzZXF1ZW5jZW51bWJlcikiIG1hcmtlci1lbmQ9InVybCgjYXJyb3doZWFkKSIgc3Ryb2tlPSJub25lIiBzdHJva2Utd2lkdGg9IjIiIGNsYXNzPSJtZXNzYWdlTGluZTAiIHkyPSIyNDQxIiB4Mj0iMjQ5MyIgeTE9IjI0NDEiIHgxPSI5NDMuNSI+PC9saW5lPjx0ZXh0IGNsYXNzPSJzZXF1ZW5jZU51bWJlciIgdGV4dC1hbmNob3I9Im1pZGRsZSIgZm9udC1zaXplPSIxMnB4IiBmb250LWZhbWlseT0ic2Fucy1zZXJpZiIgeT0iMjQ0NSIgeD0iOTQzLjUiPjM1PC90ZXh0Pjx0ZXh0IHN0eWxlPSJmb250LXNpemU6IDE2cHg7IGZvbnQtd2VpZ2h0OiA0MDA7IiBkeT0iMWVtIiBjbGFzcz0ibWVzc2FnZVRleHQiIGFsaWdubWVudC1iYXNlbGluZT0ibWlkZGxlIiBkb21pbmFudC1iYXNlbGluZT0ibWlkZGxlIiB0ZXh0LWFuY2hvcj0ibWlkZGxlIiB5PSIyNDc2IiB4PSIzMDU5Ij5SZXZpZXcgQ05GIHRlc3QgcmVwb3J0IGFuZCBNYW51YWxseSBhcHByb3ZlIENORiBwcm9qZWN0IHRvIGJlIHB1Ymxpc2hlZCB0byBjYXRhbG9nPC90ZXh0PjxsaW5lIHN0eWxlPSJmaWxsOiBub25lOyIgbWFya2VyLXN0YXJ0PSJ1cmwoI3NlcXVlbmNlbnVtYmVyKSIgbWFya2VyLWVuZD0idXJsKCNhcnJvd2hlYWQpIiBzdHJva2U9Im5vbmUiIHN0cm9rZS13aWR0aD0iMiIgY2xhc3M9Im1lc3NhZ2VMaW5lMCIgeTI9IjI1MDciIHgyPSIzMzk4LjUiIHkxPSIyNTA3IiB4MT0iMjcxOS41Ij48L2xpbmU+PHRleHQgY2xhc3M9InNlcXVlbmNlTnVtYmVyIiB0ZXh0LWFuY2hvcj0ibWlkZGxlIiBmb250LXNpemU9IjEycHgiIGZvbnQtZmFtaWx5PSJzYW5zLXNlcmlmIiB5PSIyNTExIiB4PSIyNzE5LjUiPjM2PC90ZXh0Pjwvc3ZnPg==;" vertex="1" parent="1">
            <mxGeometry x="-1370" y="-920" width="3595.5" height="2623" as="geometry" />
          </mxCell>
        </UserObject>
      </root>
    </mxGraphModel>
  </diagram>
</mxfile>
